<?xml version="1.0" standalone="no"?>
<!DOCTYPE svg PUBLIC "-//W3C//DTD SVG 20010904//EN"
 "http://www.w3.org/TR/2001/REC-SVG-20010904/DTD/svg10.dtd">
<svg version="1.0" xmlns="http://www.w3.org/2000/svg"
 width="1280.000000pt" height="853.000000pt" viewBox="0 0 1280.000000 853.000000"
 preserveAspectRatio="xMidYMid meet">
<metadata>
Created by potrace 1.16, written by Peter Selinger 2001-2019
</metadata>
<g transform="translate(0.000000,853.000000) scale(0.100000,-0.100000)"
fill="#000000" stroke="none">
<path d="M4436 7070 c-42 -13 -75 -48 -87 -94 -8 -30 -8 -254 0 -811 6 -423
16 -1103 22 -1510 5 -407 11 -749 12 -760 2 -21 -13 -23 -81 -9 -26 5 -31 10
-26 26 9 29 -21 68 -54 68 -32 0 -45 -8 -60 -36 -12 -22 -11 -41 2 -63 7 -10
2 -12 -25 -6 -68 13 -71 16 -64 38 12 37 8 70 -11 84 -47 35 -101 -2 -90 -62
4 -19 6 -35 4 -36 -2 0 -43 -3 -93 -5 -49 -3 -97 -10 -107 -15 -24 -13 -118
-12 -98 1 11 7 4 10 -27 10 -33 0 -41 3 -37 14 6 16 -12 56 -30 68 -42 28 -92
-12 -83 -67 4 -25 2 -35 -8 -35 -18 0 -28 -32 -13 -42 7 -4 21 -8 31 -8 15 0
18 -7 15 -37 -3 -31 -8 -38 -33 -45 -41 -12 -209 -37 -214 -33 -2 3 8 18 23
35 43 52 30 52 -46 -1 -66 -45 -119 -65 -102 -38 4 8 0 9 -15 4 -14 -4 -21 -2
-21 6 0 19 200 212 239 231 l34 16 -39 0 c-44 0 -102 -21 -157 -56 -46 -30
-61 -23 -17 8 71 50 205 229 186 247 -3 3 -20 -5 -38 -19 -32 -24 -162 -98
-173 -98 -3 0 -5 12 -5 27 0 26 0 26 -20 8 -26 -23 -90 -128 -90 -146 0 -8 -9
-25 -20 -39 l-20 -25 2 48 c1 41 4 48 19 44 10 -3 20 2 23 10 9 21 6 295 -3
317 -6 16 -10 13 -32 -20 -45 -68 -49 -80 -59 -193 -14 -166 -31 -184 -48 -51
l-8 65 -27 -52 c-17 -34 -34 -53 -45 -53 -9 1 -32 24 -51 55 -44 69 -130 153
-206 201 l-60 38 83 -89 c59 -63 94 -111 119 -163 19 -40 33 -75 32 -77 -2 -2
-13 -5 -23 -7 -16 -2 -23 6 -34 47 -8 28 -20 57 -27 65 -6 8 -22 36 -34 61
-11 25 -32 56 -45 68 l-24 22 -7 -60 c-7 -60 -6 -63 27 -104 48 -58 58 -80 48
-98 -7 -10 -11 -6 -16 19 -4 18 -11 35 -17 39 -6 4 -8 0 -4 -11 4 -11 3 -15
-4 -11 -6 4 -8 13 -5 21 3 7 -6 26 -19 41 -32 37 -32 13 0 -42 22 -37 24 -46
14 -69 -14 -31 -29 -25 -29 12 0 27 -34 112 -45 112 -3 0 -2 -18 1 -39 7 -44
-15 -121 -46 -161 l-20 -25 0 67 c0 74 -14 98 -24 40 -3 -20 -14 -50 -25 -65
l-19 -29 -18 38 c-27 53 -44 55 -44 5 0 -39 -26 -111 -41 -111 -4 0 -9 7 -13
15 -3 8 -13 15 -23 14 -11 0 -13 -3 -5 -6 12 -4 18 -43 7 -43 -4 0 -19 7 -36
15 -28 15 -29 15 -18 -3 9 -14 8 -25 -5 -50 -17 -32 -46 -44 -46 -18 0 16 -65
50 -83 43 -7 -2 0 -10 16 -17 47 -22 52 -97 7 -92 -28 3 -118 -16 -124 -27 -2
-3 18 -6 45 -7 53 -1 72 -13 84 -54 l7 -25 -29 28 c-20 19 -40 27 -64 27 l-34
0 30 -18 c17 -11 36 -26 44 -35 12 -16 8 -17 -43 -17 -36 0 -55 -4 -51 -10 9
-14 -11 -12 -23 3 -5 6 -12 21 -16 32 -3 11 -4 5 -2 -12 3 -39 -6 -42 -29 -10
l-17 22 7 -22 c6 -21 3 -23 -29 -23 -40 0 -48 -16 -13 -30 17 -7 18 -9 5 -9
-10 -1 -18 -6 -18 -12 0 -10 109 -8 177 3 12 1 22 -1 22 -7 0 -19 56 -21 361
-14 512 12 847 43 857 78 5 17 67 61 86 61 7 0 47 -37 89 -83 55 -57 78 -76
78 -63 0 11 -35 53 -81 98 -44 43 -78 82 -75 87 9 14 -20 21 -33 8 -8 -8 -11
-8 -11 1 0 7 -12 12 -27 12 -46 1 -7 16 87 35 90 18 162 45 192 72 17 15 18
11 18 -88 0 -57 3 -212 6 -344 6 -214 4 -242 -10 -254 -20 -17 -21 -65 -1 -85
13 -12 15 -58 15 -288 0 -200 -3 -277 -12 -286 -9 -9 -9 -12 0 -12 7 0 12 -5
12 -11 0 -7 -10 -9 -24 -5 -14 3 -28 1 -31 -4 -9 -14 13 -40 34 -40 13 0 16
-8 13 -40 -2 -22 -8 -43 -13 -46 -18 -10 -9 -61 14 -82 30 -28 54 -28 78 0 23
29 24 58 2 96 -21 37 -11 67 20 58 12 -3 95 -9 185 -12 118 -5 162 -10 162
-19 0 -7 8 -23 19 -36 16 -19 16 -25 5 -37 -16 -16 -19 -52 -3 -52 5 0 7 -4 4
-10 -4 -6 11 -10 37 -10 35 1 40 3 25 11 -14 8 -15 14 -7 24 7 9 8 15 1 19
-12 8 -3 34 21 60 10 11 18 28 18 38 0 12 7 18 23 18 12 0 32 3 45 6 18 5 22
2 22 -16 0 -13 -9 -38 -21 -57 -14 -22 -19 -42 -15 -58 6 -23 26 -36 26 -17 0
5 20 17 43 27 l44 18 -5 47 -4 47 58 28 c33 15 65 32 72 38 23 18 -16 25 -57
11 -62 -22 -81 -19 -81 17 0 24 4 29 18 25 9 -3 34 -8 55 -12 34 -6 39 -4 35
11 -3 18 -21 26 -80 39 l-28 6 0 244 c0 204 2 246 15 256 19 16 19 58 1 79
-11 13 -15 93 -19 388 l-6 372 27 18 c15 10 52 23 82 29 52 11 57 10 83 -12
51 -43 -165 -42 1917 -4 580 11 1451 27 1935 35 496 9 897 21 919 26 94 25
110 76 101 333 -8 263 -35 1476 -35 1614 0 100 -2 112 -17 112 -16 1 -16 2 -3
13 13 11 14 70 3 512 -6 275 -15 512 -18 527 -4 14 -20 39 -36 54 -27 26 -38
29 -132 35 -149 10 -4597 9 -4631 -1z m4594 -749 c0 -121 7 -487 14 -813 8
-326 18 -706 21 -844 l6 -252 -153 -6 c-84 -3 -922 -17 -1863 -31 -940 -14
-1875 -28 -2077 -31 l-368 -7 0 69 c0 38 -5 254 -10 479 -5 226 -12 686 -16
1022 l-7 612 514 3 c283 2 943 4 1468 6 525 1 957 5 960 7 2 3 343 5 758 5
l753 0 0 -219z m-5317 -2517 c3 -3 71 -5 152 -5 l146 2 -2 -253 c-1 -215 -4
-261 -19 -305 -10 -29 -17 -53 -14 -53 11 0 52 81 61 125 6 28 12 146 13 264
0 118 3 218 6 222 2 5 33 8 68 8 l63 -1 5 -101 c3 -56 6 -227 8 -379 2 -268 1
-278 -19 -304 -27 -34 -27 -69 0 -87 20 -14 20 -21 17 -291 -2 -175 -7 -276
-13 -276 -5 0 -10 6 -10 13 -1 6 -7 10 -15 7 -8 -3 -87 -5 -175 -4 -127 0
-168 4 -199 17 -45 20 -49 21 -41 7 3 -5 2 -10 -2 -10 -5 0 -13 8 -20 19 -10
16 -18 17 -55 10 -86 -16 -78 -40 -78 244 0 235 2 254 20 277 25 31 25 41 1
72 -18 23 -20 50 -27 406 l-7 382 65 0 c35 0 67 -3 71 -6z"/>
<path d="M5627 6433 c6 -15 4 -16 -8 -6 -9 7 -33 10 -59 8 -25 -3 -73 -6 -108
-6 -58 -2 -63 -4 -60 -23 2 -16 10 -21 33 -21 19 0 29 -5 28 -12 -2 -7 3 -13
10 -13 20 1 47 26 47 44 0 9 5 16 11 16 6 0 8 -7 5 -15 -3 -10 1 -18 12 -21 9
-3 24 -9 32 -13 9 -5 21 -3 29 6 7 8 19 12 26 9 9 -3 15 4 18 17 3 21 4 22 13
2 10 -22 34 -32 34 -14 0 8 4 8 13 1 6 -5 28 -9 47 -8 30 1 35 5 35 25 0 31
-25 40 -32 12 -3 -13 -13 -21 -27 -21 -19 1 -20 2 -4 14 23 17 11 28 -16 14
-11 -6 -23 -10 -26 -9 -3 2 -14 10 -25 17 -26 19 -36 18 -28 -3z"/>
<path d="M8604 6316 c-3 -8 -4 -25 -2 -38 3 -23 4 -23 158 -26 85 -1 159 -1
165 2 7 2 9 19 7 40 l-4 36 -159 0 c-129 0 -161 -3 -165 -14z"/>
<path d="M8832 5761 c-41 -13 -66 -31 -112 -78 -34 -37 -61 -74 -65 -93 -4
-18 -26 -92 -50 -166 -32 -102 -55 -153 -95 -214 -29 -44 -54 -80 -57 -80 -2
0 -28 18 -56 40 -75 56 -143 64 -224 25 -49 -23 -75 -28 -170 -33 -100 -4
-120 -2 -175 18 -79 29 -152 24 -227 -16 -51 -26 -57 -27 -110 -16 l-55 12
-60 -40 c-51 -34 -67 -40 -114 -40 -73 0 -153 -25 -228 -71 -35 -21 -86 -50
-115 -65 -48 -24 -56 -25 -93 -14 -23 7 -75 18 -117 25 -64 10 -84 18 -133 55
-32 24 -60 39 -65 34 -4 -5 -29 -37 -56 -71 l-48 -63 -76 -1 c-95 -2 -189 -6
-309 -14 -92 -7 -220 -11 -437 -14 l-110 -1 3 -77 c2 -43 5 -79 6 -80 1 -1
586 7 1301 17 715 11 1433 20 1595 22 162 1 348 4 414 6 l119 3 -7 212 c-3
117 -9 343 -12 502 -3 160 -7 291 -8 291 0 1 -25 -6 -54 -15z"/>
<path d="M8835 4595 c-50 -49 -17 -135 51 -135 47 0 70 14 83 50 29 85 -71
148 -134 85z"/>
<path d="M9674 6052 c0 -9 -8 -18 -19 -20 -11 -3 -25 -12 -32 -21 -12 -15 -14
-14 -28 3 -14 18 -15 17 -15 -28 0 -54 19 -96 64 -145 23 -26 26 -32 11 -26
-11 4 -51 14 -88 21 -38 8 -72 16 -75 18 -4 2 -13 -2 -20 -10 -11 -12 -9 -14
12 -14 13 0 69 -18 124 -40 54 -22 103 -40 107 -40 10 0 71 -64 92 -97 17 -26
17 -27 -25 -12 -16 5 -32 18 -34 27 -3 10 -22 26 -44 37 -21 11 -51 28 -66 38
-29 19 -220 89 -226 82 -8 -8 34 -54 70 -78 21 -13 73 -36 115 -51 43 -15 92
-33 108 -41 17 -7 54 -21 82 -31 41 -14 59 -27 79 -57 14 -21 23 -42 20 -45
-4 -3 8 -20 25 -38 46 -48 32 -65 -17 -21 -23 20 -58 42 -80 50 -21 7 -38 18
-37 24 1 6 -30 24 -70 39 -39 15 -73 31 -75 36 -2 4 -19 8 -37 8 -19 0 -37 5
-40 10 -9 14 42 12 95 -4 55 -17 143 -57 190 -87 32 -20 31 -18 -10 20 -47 44
-118 87 -128 77 -3 -3 -11 -1 -19 5 -17 15 -120 14 -137 0 -7 -6 -16 -8 -19
-4 -4 3 -7 2 -7 -3 0 -19 66 -73 130 -106 36 -19 77 -42 91 -51 14 -10 75 -37
134 -61 116 -48 121 -53 151 -141 9 -27 22 -57 29 -65 20 -25 26 -50 9 -43 -7
3 -14 8 -14 12 0 11 -107 91 -127 94 -34 7 -72 30 -75 46 -2 10 -15 16 -35 17
-18 1 -44 4 -58 8 -35 9 -31 -7 10 -38 31 -24 267 -163 322 -190 23 -11 35
-33 52 -101 9 -34 8 -42 -6 -53 -16 -11 -16 -14 -3 -22 9 -6 10 -10 3 -10 -7
0 -17 8 -22 18 -10 16 -10 16 -11 -2 0 -15 -3 -16 -15 -6 -12 10 -15 9 -15 -4
0 -28 17 -52 100 -147 68 -77 82 -99 100 -159 28 -93 54 -229 47 -237 -4 -3
-18 -1 -32 5 -31 14 -129 16 -154 3 -27 -15 -74 -88 -65 -102 4 -8 3 -9 -4 -5
-7 4 -31 -33 -65 -105 -30 -61 -57 -107 -61 -101 -3 5 -11 43 -17 84 -12 72
-11 76 15 128 15 30 39 70 54 90 33 45 208 198 242 212 15 6 20 12 12 15 -6 3
-33 -5 -58 -17 -53 -26 -234 -222 -261 -283 -9 -20 -20 -34 -24 -30 -4 5 -9
43 -11 87 l-4 78 48 52 c26 28 43 53 37 55 -13 4 -59 -38 -69 -64 -7 -19 -9
-18 -19 8 -16 42 -13 71 11 102 21 27 21 28 3 62 -23 42 -39 51 -88 51 -21 0
-44 6 -52 12 -8 7 -15 8 -15 3 0 -15 22 -32 35 -27 7 3 22 -6 32 -20 11 -14
24 -22 29 -18 5 4 3 -1 -4 -10 -11 -14 -10 -18 7 -28 12 -6 21 -15 21 -20 0
-5 -16 2 -36 15 -20 14 -42 25 -48 24 -6 0 0 -8 14 -17 35 -24 70 -59 70 -71
0 -11 -37 8 -143 72 -32 20 -81 40 -108 46 -81 18 -79 12 3 -15 48 -15 98 -41
135 -68 115 -87 115 -87 121 -147 l5 -54 -30 31 c-37 41 -161 120 -214 139
-23 8 -59 15 -81 15 l-40 0 33 -41 c43 -55 126 -115 233 -170 69 -35 92 -51
99 -73 14 -42 0 -43 -41 -4 -20 20 -62 48 -92 63 -48 24 -62 27 -123 22 -38
-2 -73 -9 -78 -14 -16 -16 53 -67 153 -116 l87 -41 -56 -21 -56 -21 39 -23
c21 -13 81 -53 131 -89 83 -59 94 -71 109 -114 27 -81 44 -202 31 -210 -9 -6
-9 -8 1 -8 6 0 12 -5 12 -12 0 -6 -9 -3 -20 7 -30 27 -34 13 -11 -36 11 -24
21 -60 23 -79 3 -35 3 -35 62 -42 38 -5 66 -4 79 4 l22 11 -23 10 c-29 13 -67
92 -93 194 -23 95 -19 135 31 276 15 43 24 75 20 70 -12 -11 -67 -153 -72
-181 -6 -43 -23 -26 -41 42 l-18 68 42 86 c24 48 44 89 46 91 1 2 31 -23 68
-55 50 -45 65 -65 64 -84 -4 -55 2 -71 32 -89 17 -11 42 -37 55 -60 14 -22 34
-43 45 -46 14 -5 18 -12 14 -23 -23 -55 -14 -76 35 -86 24 -4 30 -11 31 -33 3
-68 -4 -148 -14 -165 -16 -24 -45 -32 -63 -17 -11 9 -20 9 -37 1 -12 -6 -29
-13 -37 -15 -8 -3 66 -5 165 -5 99 0 169 3 156 7 -34 9 -38 29 -8 40 14 6 27
18 29 28 3 16 5 16 26 -5 17 -17 22 -30 18 -48 -6 -23 -5 -24 56 -24 l63 0 -2
232 c-2 229 -4 247 -43 396 -5 18 -4 32 1 32 5 0 9 -7 9 -15 0 -22 8 -19 36
14 29 35 85 59 160 67 l57 7 -7 -28 c-17 -68 -19 -87 -7 -95 8 -4 -4 -11 -31
-18 -25 -6 -56 -21 -71 -32 -29 -23 -72 -108 -82 -160 l-6 -35 16 28 c17 30
41 38 31 10 -5 -13 -24 -295 -26 -391 0 -10 15 -13 58 -11 62 2 80 8 63 19 -7
3 -13 37 -15 73 -3 54 -1 69 12 77 10 5 12 10 7 10 -10 0 -10 82 0 170 3 25 7
82 8 127 3 89 10 107 31 78 12 -17 14 -15 20 18 4 21 13 37 24 40 16 4 16 5 0
6 -16 1 -17 4 -4 39 8 20 17 49 20 63 6 29 35 39 105 39 21 0 46 6 56 14 17
12 14 14 -34 25 -28 6 -62 11 -75 11 -23 0 -23 0 -11 79 7 53 8 79 1 78 -5 -1
-17 13 -26 32 -9 19 -25 40 -35 48 -14 9 -16 16 -8 24 14 14 49 7 45 -10 -4
-20 9 -54 18 -45 4 5 10 21 13 35 6 22 2 27 -26 37 -19 7 -45 12 -59 12 -19 0
-29 8 -38 30 -17 42 -30 37 -30 -10 0 -41 -15 -55 -79 -75 -24 -7 -24 -7 -19
56 5 52 12 74 41 117 27 39 38 68 43 110 6 56 8 58 69 105 34 26 64 47 67 47
7 0 28 -163 30 -235 1 -33 -2 -81 -7 -107 -8 -50 7 -69 21 -25 4 12 10 24 13
27 4 3 22 37 41 75 19 39 39 74 45 78 6 5 3 7 -7 3 -12 -3 -18 0 -18 10 0 8
-4 12 -10 9 -5 -3 -14 -4 -19 0 -10 5 25 84 43 97 5 3 10 19 12 35 3 32 21 81
51 139 21 39 59 79 113 116 14 10 17 15 8 12 -22 -7 -24 14 -3 22 27 11 16 24
-15 18 -26 -6 -29 -4 -25 14 2 15 0 19 -11 15 -19 -7 -18 22 1 78 15 40 14 46
-7 96 -21 52 -21 54 -4 108 9 30 21 57 26 60 6 3 15 15 20 25 9 17 6 16 -26
-5 -42 -29 -50 -30 -84 -10 -37 21 -42 18 -24 -16 9 -18 16 -48 17 -68 0 -20
4 -41 9 -48 5 -6 11 -33 13 -60 l4 -48 -17 50 c-9 28 -21 48 -25 47 -5 -2 -23
9 -39 25 l-31 28 7 -35 c8 -44 53 -134 83 -166 13 -14 23 -37 23 -52 -1 -24
-2 -25 -11 -9 -8 14 -14 16 -25 6 -10 -8 -14 -8 -14 0 0 18 -55 131 -64 131
-13 0 -1 -46 38 -145 29 -71 36 -82 33 -53 -1 20 1 35 5 32 14 -9 1 -141 -17
-172 -23 -38 -49 -29 -59 19 -3 18 -8 30 -11 28 -2 -3 3 -36 11 -74 14 -67 11
-145 -6 -145 -11 0 -39 74 -30 80 14 10 19 78 6 83 -8 3 -17 18 -20 34 -8 30
-46 96 -52 90 -2 -2 7 -36 21 -76 14 -40 24 -78 22 -85 -2 -6 -9 7 -16 29 -7
22 -22 64 -33 93 -19 48 -22 51 -37 38 -15 -14 -18 -13 -29 4 -16 26 -24 25
-61 -5 -37 -32 -91 -137 -91 -179 0 -28 -4 -33 -42 -44 -79 -25 -116 -80 -88
-133 9 -16 7 -19 -9 -19 -19 0 -81 -62 -81 -80 0 -14 -12 -12 -34 5 -19 15
-19 16 15 53 20 20 43 50 53 65 l17 28 -28 -7 c-38 -9 -108 -59 -135 -95 -21
-29 -48 -39 -48 -18 0 5 -4 7 -10 4 -15 -9 -12 2 16 72 32 82 30 136 -6 141
-14 2 -31 9 -37 14 -14 12 -35 -1 -66 -39 l-18 -23 -55 52 c-57 56 -66 84 -36
111 39 35 83 105 71 113 -7 4 -9 3 -6 -3 3 -5 -7 -25 -23 -44 -16 -19 -29 -29
-30 -24 0 6 4 15 9 20 6 6 30 51 54 100 33 67 54 97 83 117 22 16 41 23 44 18
4 -6 13 1 20 16 8 14 37 39 65 55 65 37 52 37 -32 -1 -123 -56 -217 -160 -258
-288 -19 -58 -55 -116 -55 -89 0 9 -4 17 -10 17 -5 0 -10 9 -10 20 0 11 -3 20
-7 20 -5 0 -21 23 -37 51 -28 50 -29 55 -23 148 4 53 9 116 12 141 l6 45 -15
-33 c-9 -18 -18 -57 -21 -85 -4 -29 -10 -55 -13 -59 -12 -12 -112 144 -118
183 -4 25 0 45 15 70 20 33 61 142 61 161 0 16 -42 -34 -51 -61 -9 -26 -7 0 6
114 5 36 4 38 -7 15 -6 -14 -22 -47 -35 -75 -13 -27 -28 -72 -34 -99 -5 -27
-11 -52 -14 -54 -2 -3 -13 6 -24 19 -26 31 -27 74 -2 91 46 33 67 161 36 234
-13 32 -16 34 -35 22 -18 -11 -23 -10 -33 3 -9 12 -16 14 -29 5 -13 -8 -24 -6
-46 11 -25 19 -29 19 -28 5z m729 -1406 c27 -20 54 -36 60 -36 23 0 37 -38 30
-85 -5 -40 -8 -45 -32 -45 -54 0 -54 -11 -6 -103 26 -47 61 -98 78 -113 32
-27 55 -84 34 -84 -6 0 -31 19 -56 43 -40 38 -42 39 -22 9 19 -26 21 -36 11
-47 -20 -24 -6 -88 39 -178 36 -73 41 -91 41 -151 0 -88 -17 -146 -42 -146
-11 0 -18 7 -18 19 0 11 -6 26 -13 33 -25 25 -57 158 -38 158 6 0 20 18 31 40
l20 40 -26 -10 c-15 -6 -29 -8 -33 -5 -7 8 -71 264 -71 288 0 9 5 17 11 17 6
0 3 7 -5 16 -9 8 -18 25 -21 37 -2 12 -8 42 -13 67 -5 25 -19 81 -31 124 -19
70 -21 85 -10 122 8 27 17 40 24 35 5 -5 32 -25 58 -45z m481 -58 c2 -7 15
-51 29 -98 15 -47 28 -100 29 -119 3 -31 0 -34 -37 -45 -22 -7 -74 -33 -115
-58 -73 -45 -75 -45 -83 -25 -5 13 -3 32 4 47 6 14 15 57 19 96 5 48 14 82 29
102 11 17 21 37 21 46 0 16 66 66 88 66 7 0 14 -6 16 -12z m-554 -243 c0 -14
-4 -25 -10 -25 -5 0 -10 -4 -10 -10 0 -5 6 -10 14 -10 9 0 17 -25 26 -80 12
-79 12 -82 -10 -105 -31 -33 -36 -31 -49 8 -13 38 -51 77 -99 102 -32 15 -33
17 -15 30 10 8 13 15 7 15 -6 0 -21 -11 -34 -25 -25 -27 -44 -30 -84 -16 -38
15 -23 43 37 67 63 25 197 71 215 73 7 0 12 -10 12 -24z"/>
<path d="M9472 3860 c-29 -4 -55 -10 -57 -11 -1 -2 -4 -33 -6 -69 l-4 -65 40
-7 c22 -4 68 -7 103 -7 l62 -1 0 59 c0 33 -4 71 -10 85 -10 29 -27 31 -128 16z"/>
<path d="M6800 3488 c-14 -7 -33 -30 -43 -51 -16 -32 -17 -44 -7 -90 12 -58
52 -123 82 -133 11 -3 33 0 48 6 22 9 38 9 60 2 41 -15 56 -7 86 44 l26 45
-26 24 c-31 28 -33 64 -8 107 16 28 16 30 -3 45 -14 10 -31 13 -60 8 -54 -9
-76 -10 -105 -2 -14 4 -36 2 -50 -5z"/>
<path d="M6208 2913 c38 -5 42 -18 7 -27 -15 -4 -23 -11 -19 -17 4 -7 -4 -10
-22 -7 -22 2 -30 -2 -32 -16 -3 -13 0 -17 11 -13 12 4 54 -30 45 -38 -2 -1
-31 -17 -65 -36 -35 -18 -63 -36 -63 -40 0 -4 -24 -20 -52 -37 -65 -36 -138
-113 -172 -180 -29 -57 -30 -62 -16 -62 6 0 10 8 10 18 0 52 132 197 197 216
20 7 21 5 16 -54 -5 -51 -3 -60 11 -60 9 0 16 -8 16 -20 0 -11 -7 -20 -15 -20
-8 0 -15 -4 -15 -10 0 -5 5 -10 10 -10 6 0 10 -8 10 -18 0 -11 16 -26 43 -40
23 -11 58 -30 77 -41 102 -58 197 -77 425 -88 211 -9 231 -8 258 11 12 9 32
23 43 31 12 9 54 19 93 24 39 4 75 11 80 17 5 5 11 45 13 89 l3 80 -60 6 c-82
8 -117 21 -287 105 -81 40 -172 78 -202 85 -61 13 -74 29 -26 29 35 0 36 2 14
35 -9 13 -13 29 -9 35 3 5 0 10 -7 11 -7 1 -2 5 12 9 20 6 15 8 -24 9 -58 1
-52 18 9 24 22 2 -48 4 -155 4 -107 0 -180 -2 -162 -4z m297 -164 c32 -6 76
-18 97 -26 39 -16 51 -42 21 -44 -60 -5 -553 -3 -553 2 0 11 98 49 163 63 77
17 195 19 272 5z"/>
<path d="M6780 2684 c0 -7 140 -68 185 -80 52 -14 136 -19 102 -5 -18 6 -18 7
0 23 10 9 30 21 43 26 l25 10 -30 12 c-34 14 -209 19 -243 8 -14 -5 -21 -4
-17 2 3 5 -9 9 -30 8 -19 -1 -35 -3 -35 -4z"/>
<path d="M11080 2540 c-138 -7 -136 -7 200 -15 129 -4 303 -10 385 -15 124 -7
103 -8 -120 -4 -148 2 -315 6 -370 9 -183 10 -54 -19 248 -55 66 -8 102 -20
60 -20 -31 0 -295 30 -313 35 -31 10 -287 35 -345 34 -51 -1 -55 -2 -30 -10
17 -4 73 -15 126 -23 53 -9 117 -22 142 -31 25 -8 123 -26 219 -40 95 -14 218
-33 273 -42 78 -14 163 -17 394 -18 172 0 273 -3 245 -8 -27 -4 -60 -10 -74
-13 -23 -6 -24 -7 -5 -14 11 -5 39 -9 63 -9 34 -1 42 -4 42 -20 0 -14 -10 -21
-35 -25 -39 -8 -55 -2 -55 20 0 8 -10 14 -25 14 -20 0 -25 -5 -25 -24 0 -14 4
-27 8 -30 4 -3 109 -7 233 -11 204 -5 221 -5 191 9 -18 8 -35 23 -39 33 -4 10
-11 21 -16 24 -5 4 33 10 84 14 52 4 99 11 104 15 6 4 21 11 35 15 14 4 46 21
73 37 47 30 47 31 47 84 l0 53 -44 -19 c-31 -13 -43 -15 -40 -6 12 32 -22 35
-436 40 -228 3 -458 10 -510 16 -100 10 -477 10 -690 0z"/>
<path d="M2715 2321 c-11 -5 -51 -10 -90 -11 -38 -1 -160 -9 -270 -19 -131
-11 -210 -14 -228 -8 -20 7 -33 5 -50 -6 -18 -12 -132 -33 -218 -41 -20 -1
-41 -23 -57 -59 -6 -15 -12 -29 -12 -31 0 -6 42 -18 74 -22 16 -2 32 -7 35
-10 9 -9 -20 -22 -40 -17 -16 5 -19 0 -19 -28 0 -23 -3 -30 -9 -20 -6 9 -10 5
-14 -15 -12 -63 -12 -69 3 -69 8 0 24 -8 35 -19 11 -10 35 -30 53 -44 81 -62
-5 -29 -293 114 -359 177 -395 186 -395 96 0 -40 21 -61 110 -112 67 -37 75
-51 38 -62 -13 -3 -18 -6 -11 -7 6 -1 18 -7 25 -13 7 -7 47 -30 88 -50 41 -21
142 -74 224 -118 185 -100 204 -105 343 -91 59 5 203 20 318 31 533 53 1043
112 1070 124 17 8 75 19 129 26 113 14 126 17 126 35 0 16 -56 27 -78 15 -9
-5 -195 -28 -412 -50 -400 -41 -552 -58 -964 -105 -126 -14 -245 -25 -265 -23
-35 3 -36 4 -33 38 1 19 7 39 11 43 14 14 198 34 516 57 296 21 923 87 1118
117 66 10 106 21 104 27 -4 13 -152 88 -210 106 -23 8 -55 23 -71 34 -16 11
-39 21 -50 22 -12 1 -84 25 -161 54 -115 43 -153 53 -210 55 -58 1 -78 6 -113
30 -44 29 -113 41 -147 26z"/>
<path d="M190 2093 c-165 -11 -190 -15 -190 -29 0 -12 8 -13 36 -8 34 6 36 6
25 -14 -14 -26 -14 -42 0 -42 5 0 8 3 5 8 -2 4 1 15 8 24 9 12 15 13 27 4 9
-6 18 -15 20 -21 5 -12 68 -15 89 -4 9 4 44 5 78 2 48 -5 62 -9 60 -21 -2 -9
8 -18 25 -23 23 -6 27 -4 27 12 0 10 7 19 15 19 8 0 15 -5 15 -11 0 -7 16 8
35 32 19 24 35 47 35 51 0 23 -146 33 -310 21z"/>
<path d="M10336 2088 c3 -7 37 -40 75 -73 39 -33 87 -75 107 -94 69 -63 244
-216 283 -246 21 -16 82 -64 136 -105 l98 -75 119 -4 c65 -2 157 0 205 5 75 6
81 8 51 15 -19 5 -109 11 -200 14 -156 5 -166 7 -180 28 -24 35 -102 107 -118
107 -4 0 -32 23 -62 52 -62 57 -58 56 55 -17 44 -29 95 -59 112 -69 36 -18 98
-21 108 -6 4 7 -8 10 -37 8 -37 -2 -53 4 -114 44 -38 26 -86 62 -105 80 -19
18 -47 42 -64 52 -16 11 -50 36 -75 56 -210 169 -252 201 -256 198 -3 -4 40
-46 180 -171 l31 -28 -30 17 c-16 10 -39 25 -50 33 -11 9 -36 25 -55 36 -19
10 -46 30 -60 43 -14 13 -42 35 -62 48 -23 14 -35 29 -32 38 3 7 -2 16 -12 20
-14 5 -15 4 -4 -9 7 -8 8 -15 2 -15 -5 0 -15 7 -22 15 -15 18 -32 20 -24 3z"/>
<path d="M274 1875 c-23 -7 -56 -10 -75 -8 -41 4 -63 -3 -53 -18 4 -8 9 -7 15
2 8 12 10 12 18 0 5 -8 31 -14 67 -16 72 -3 73 -3 54 -15 -8 -5 -29 -7 -46 -4
-18 3 -35 1 -38 -5 -4 -6 -17 -11 -28 -11 -12 0 -30 -7 -40 -17 -17 -15 -18
-15 -18 5 0 24 -15 30 -23 8 -4 -10 -19 -12 -56 -8 l-51 5 0 -74 0 -74 102 7
c138 8 351 26 416 34 57 7 81 24 33 24 -35 0 -71 33 -71 66 0 53 -13 85 -41
99 -27 15 -62 16 -75 3 -3 -4 -16 -3 -28 1 -12 5 -38 3 -62 -4z"/>
<path d="M536 1635 c-91 -11 -442 -35 -515 -35 -13 0 -21 -6 -21 -16 0 -14 9
-16 58 -11 31 3 173 14 315 23 228 16 259 20 268 36 5 10 8 18 7 17 -2 -1 -52
-7 -112 -14z"/>
<path d="M5670 1539 c-78 -15 -553 -88 -590 -91 -22 -2 -36 -9 -38 -19 -4 -20
57 -126 77 -135 18 -7 99 -26 361 -84 96 -21 288 -64 425 -95 252 -57 361 -73
409 -61 27 7 36 26 12 26 -8 0 -27 10 -41 23 l-26 22 77 39 c65 33 102 43 248
69 94 16 196 31 226 33 77 6 173 27 177 41 6 16 -144 28 -162 13 -10 -8 -15
-8 -21 1 -4 8 -3 9 4 5 7 -4 12 -3 12 2 0 6 -15 12 -32 15 -30 4 -408 80 -855
172 -182 37 -191 38 -263 24z"/>
<path d="M7140 1517 c0 -29 31 -41 160 -62 103 -16 305 -21 296 -6 -3 5 -32
12 -63 16 -77 9 -281 51 -316 64 -49 19 -77 14 -77 -12z"/>
<path d="M12055 1530 c-60 -4 -126 -8 -145 -10 l-35 -2 30 -10 c31 -11 801
-20 863 -11 18 3 32 12 32 19 0 11 -39 14 -207 15 -115 0 -257 1 -318 3 -60 2
-159 0 -220 -4z"/>
</g>
</svg>
