<?xml version="1.0" standalone="no"?>
<!DOCTYPE svg PUBLIC "-//W3C//DTD SVG 20010904//EN"
 "http://www.w3.org/TR/2001/REC-SVG-20010904/DTD/svg10.dtd">
<svg version="1.0" xmlns="http://www.w3.org/2000/svg"
 width="275.000000pt" height="183.000000pt" viewBox="0 0 275.000000 183.000000"
 preserveAspectRatio="xMidYMid meet">

<g transform="translate(0.000000,183.000000) scale(0.100000,-0.100000)"
fill="#000000" stroke="none">
<path d="M1817 1482 c-15 -31 -31 -64 -36 -72 -5 -8 -29 -54 -52 -102 -24 -49
-46 -88 -50 -88 -4 0 -10 -11 -13 -24 -3 -13 -9 -32 -13 -42 -5 -13 -3 -16 10
-11 8 3 18 1 21 -6 2 -7 5 1 5 18 1 33 32 115 44 115 4 0 7 -9 7 -19 0 -10 7
-21 15 -25 8 -3 15 -13 15 -23 0 -16 -2 -16 -11 -3 -8 11 -12 12 -16 3 -2 -7
-11 -13 -18 -13 -17 0 -26 -35 -12 -49 8 -8 8 -14 -1 -23 -9 -9 -8 -16 6 -32
16 -20 16 -20 0 -7 -28 21 -23 -11 12 -80 16 -33 26 -59 22 -59 -12 1 -72 132
-64 144 17 28 9 36 -33 36 -25 0 -45 5 -48 13 -3 6 -6 0 -6 -15 -1 -15 4 -30
9 -33 6 -3 10 -14 10 -23 0 -15 -2 -15 -10 -2 -8 13 -10 13 -11 -2 -3 -35 -4
-38 -14 -37 -5 1 -35 17 -65 37 -30 19 -80 42 -110 50 -30 8 -62 21 -71 29 -8
7 -20 13 -25 13 -6 0 -19 8 -30 18 -10 10 -45 29 -78 42 l-58 25 -75 -27 c-59
-21 -80 -25 -96 -17 -26 15 -63 -2 -72 -33 -4 -13 -16 -35 -26 -49 -10 -14
-16 -29 -14 -33 3 -3 0 -2 -6 3 -6 5 -18 7 -25 4 -18 -7 -18 -42 -1 -49 15 -5
11 -74 -4 -74 -5 0 -9 -11 -9 -25 0 -28 9 -31 30 -12 12 10 12 9 0 -6 -12 -16
-12 -20 1 -28 11 -7 11 -9 -3 -9 -27 0 -22 -17 7 -24 16 -4 25 -13 25 -25 0
-20 56 -61 82 -61 11 0 13 -12 10 -60 -6 -89 5 -150 28 -150 24 0 34 46 25
107 -4 31 -10 43 -20 39 -7 -2 -15 4 -18 14 -5 21 -4 20 112 -38 71 -35 93
-51 86 -62 -2 -4 7 -5 20 -2 15 2 25 0 25 -7 0 -6 20 -32 45 -56 25 -25 38
-45 30 -45 -8 0 -12 -6 -9 -13 6 -15 -33 -107 -45 -107 -5 0 -17 -20 -28 -45
-10 -25 -21 -45 -25 -45 -5 0 -8 -7 -8 -16 0 -9 -8 -28 -19 -42 -28 -40 -54
-95 -42 -87 8 4 8 -2 0 -19 -7 -14 -15 -23 -19 -21 -5 3 -16 -14 -26 -38 -10
-23 -22 -50 -26 -59 -7 -16 -1 -18 57 -18 l65 0 32 67 c17 38 32 75 33 84 1 9
16 39 33 68 18 28 32 55 32 60 0 23 71 196 84 203 8 4 22 32 31 61 9 28 20 60
26 70 9 16 1 22 -23 18 -12 -2 -9 11 13 49 11 19 17 26 13 15 -3 -11 -9 -29
-12 -40 -5 -19 -4 -19 16 1 24 25 72 117 83 159 14 59 47 139 58 143 6 2 14
-5 18 -15 3 -10 10 -20 15 -24 6 -4 14 -39 17 -82 1 -5 5 -6 10 -2 5 3 12 1
16 -5 3 -5 2 -10 -4 -10 -6 0 -8 -7 -5 -15 4 -8 9 -13 13 -11 4 3 8 -5 8 -17
2 -18 0 -19 -8 -7 -30 45 -59 112 -53 123 4 7 4 9 -1 5 -4 -4 -14 -3 -22 3
-17 14 -17 -2 0 -20 7 -9 7 -11 1 -8 -7 4 -14 1 -17 -7 -6 -16 19 -30 27 -15
2 5 3 4 2 -3 -2 -7 -11 -12 -20 -12 -17 2 -22 -21 -6 -31 13 -8 8 -64 -7 -70
-7 -2 -13 -12 -13 -22 -1 -16 -2 -16 -16 2 -13 17 -16 18 -24 5 -15 -22 -23
-60 -16 -67 3 -4 13 2 22 13 14 18 15 18 4 -3 -6 -13 -17 -23 -25 -23 -8 0
-27 -34 -45 -83 -18 -45 -43 -110 -56 -144 -14 -34 -31 -84 -38 -111 -12 -47
-11 -51 6 -55 10 -3 18 -14 18 -25 0 -11 8 -23 18 -25 13 -4 11 -5 -5 -6 -13
0 -23 -5 -23 -11 0 -5 -5 -10 -11 -10 -5 0 -9 10 -7 22 5 36 -28 35 -47 -2
-20 -39 -13 -82 11 -73 14 5 16 1 12 -25 -3 -19 0 -32 6 -32 6 0 3 -5 -6 -11
-30 -17 -21 -36 20 -43 20 -3 155 -6 300 -6 l262 0 0 29 c0 17 -4 33 -10 36
-6 4 -7 -1 -3 -12 3 -10 3 -15 -1 -12 -11 10 -16 50 -5 44 5 -4 9 -1 9 4 0 6
-6 11 -12 11 -8 0 -9 3 -3 8 13 9 18 35 5 27 -6 -4 -10 8 -10 30 0 22 4 34 10
30 6 -3 10 -1 10 4 0 6 -4 11 -10 11 -5 0 -10 10 -9 23 0 21 1 21 9 2 5 -11 9
-14 9 -7 1 7 5 11 9 8 5 -3 9 8 9 24 0 17 -6 30 -13 30 -6 0 -19 11 -28 25
-16 25 -16 25 9 13 30 -13 43 -5 25 17 -7 9 -10 18 -7 21 2 3 -5 15 -17 27
-18 18 -21 31 -18 64 2 24 8 40 13 37 5 -3 7 -20 5 -37 -5 -32 -5 -32 7 -6 7
14 18 24 24 22 7 -3 18 7 24 21 14 31 23 26 50 -26 26 -51 65 -88 93 -88 12 0
49 13 84 30 68 32 63 33 106 -25 12 -16 15 -17 16 -4 0 9 -9 24 -20 34 -21 19
-27 45 -11 45 5 0 19 -16 31 -35 25 -40 22 -40 60 -20 31 16 55 12 64 -11 3
-8 13 -14 21 -14 12 0 15 6 9 23 -13 43 -132 267 -182 345 -14 22 -13 23 27
40 22 9 41 19 41 22 0 3 -9 16 -20 30 -15 19 -20 21 -20 9 0 -9 -6 -19 -14
-22 -12 -5 -13 -1 -4 24 8 22 6 42 -8 85 -18 57 -77 158 -107 183 -9 7 -17 19
-17 26 0 10 -46 35 -90 48 -8 2 2 8 23 12 20 4 37 11 37 17 0 5 4 7 9 4 10 -7
20 14 14 30 -2 5 -18 9 -36 8 -36 -3 -67 4 -67 15 0 10 70 42 80 36 13 -8 43
46 32 57 -6 6 -12 6 -16 -1 -4 -5 -13 -8 -21 -4 -10 3 -15 -1 -15 -16 0 -25
-47 -52 -84 -49 -14 1 -26 4 -26 7 0 10 73 71 85 71 7 0 15 8 19 18 3 9 9 23
12 30 3 7 -1 12 -10 12 -10 0 -16 9 -16 21 0 11 -9 34 -21 50 -20 28 -22 29
-34 12 -7 -10 -11 -21 -9 -25 3 -5 -2 -8 -10 -8 -9 0 -16 5 -16 10 0 18 -22
10 -27 -10 -8 -30 -30 -24 -36 10 -6 27 -27 43 -27 20 0 -5 5 -10 11 -10 5 0
9 -8 8 -17 -1 -10 3 -31 10 -47 16 -40 7 -44 -23 -10 -29 33 -37 13 -9 -20 10
-12 14 -18 9 -14 -5 4 -15 3 -22 -3 -16 -13 -16 -12 -33 69 -6 30 -9 58 -5 63
3 5 2 9 -3 9 -4 -1 -20 -26 -36 -58z m247 12 c17 -16 22 -64 7 -64 -15 0 -41
48 -35 64 8 20 9 20 28 0z m-167 -128 c-4 -10 -1 -13 9 -9 10 4 14 -2 14 -20
0 -28 16 -45 22 -25 7 19 33 -11 43 -47 4 -17 10 -24 12 -17 4 10 8 10 19 1
10 -8 14 -8 14 0 0 16 23 14 46 -4 19 -14 19 -15 -3 -21 -13 -3 -23 -10 -23
-14 0 -9 -40 -25 -52 -22 -5 1 -8 -3 -8 -9 0 -5 -5 -7 -11 -4 -6 4 -8 14 -5
24 5 12 2 11 -9 -3 -8 -11 -15 -25 -16 -30 0 -6 -5 0 -10 13 -7 19 -12 22 -21
13 -9 -9 -8 -19 5 -41 20 -34 22 -86 5 -98 -16 -9 -48 -5 -65 9 -15 12 4 48
26 48 10 0 12 11 6 48 -4 26 -10 51 -15 56 -10 10 6 29 33 39 19 7 24 51 5 45
-20 -7 -64 54 -53 72 10 16 38 12 32 -4z m103 -22 c0 -8 -4 -12 -10 -9 -5 3
-10 13 -10 21 0 8 5 12 10 9 6 -3 10 -13 10 -21z m-210 6 c0 -5 -4 -10 -10
-10 -5 0 -10 5 -10 10 0 6 5 10 10 10 6 0 10 -4 10 -10z m170 -6 c0 -8 -4 -12
-10 -9 -5 3 -10 10 -10 16 0 5 5 9 10 9 6 0 10 -7 10 -16z m-190 -26 c0 -19
-18 -43 -25 -36 -9 9 4 48 16 48 5 0 9 -6 9 -12z m98 -128 c7 -11 9 -20 4 -20
-4 0 -13 9 -20 20 -7 11 -9 20 -4 20 4 0 13 -9 20 -20z m-788 -25 c0 -5 -5 -3
-10 5 -5 8 -10 20 -10 25 0 6 5 3 10 -5 5 -8 10 -19 10 -25z m59 5 l16 -24
-27 19 c-15 11 -28 24 -28 28 0 15 23 1 39 -23z m616 0 c3 -5 1 -10 -4 -10 -6
0 -11 5 -11 10 0 6 2 10 4 10 3 0 8 -4 11 -10z m330 -80 c25 -44 43 -86 39
-92 -4 -6 -22 18 -42 58 -30 59 -36 66 -43 49 l-9 -20 2 20 c2 11 -1 26 -5 33
-7 11 -2 32 8 32 2 0 24 -36 50 -80z m-975 35 c0 -20 -17 -35 -33 -29 -15 5
-15 8 -1 36 12 24 18 28 25 17 5 -8 9 -18 9 -24z m70 20 c7 -9 8 -15 2 -15 -5
0 -12 7 -16 15 -3 8 -4 15 -2 15 2 0 9 -7 16 -15z m565 -15 c3 -5 1 -10 -4
-10 -6 0 -11 5 -11 10 0 6 2 10 4 10 3 0 8 -4 11 -10z m-701 -9 c4 -5 -3 -7
-14 -4 -23 6 -26 13 -6 13 8 0 17 -4 20 -9z m716 -21 c0 -5 -2 -10 -4 -10 -3
0 -8 5 -11 10 -3 6 -1 10 4 10 6 0 11 -4 11 -10z m251 -22 c0 -7 2 -20 4 -28
4 -23 -34 -20 -41 3 -4 11 0 23 7 28 20 12 29 11 30 -3z m-1055 -26 c-15 -3
-16 -6 -5 -13 11 -7 11 -9 -3 -9 -10 0 -18 4 -18 8 0 15 23 31 34 24 7 -4 4
-8 -8 -10z m844 -7 c0 -9 -9 -15 -22 -15 -21 0 -21 0 -2 15 24 18 24 18 24 0z
m-471 -9 c15 -18 133 -45 188 -43 54 2 67 -10 53 -50 -13 -36 -47 -49 -70 -28
-9 8 -30 15 -46 15 -20 0 -25 3 -15 9 10 7 8 12 -10 25 -13 9 -27 16 -32 16
-4 0 -29 16 -54 35 -25 19 -41 35 -36 35 6 0 16 -6 22 -14z m309 -13 c-1 -10
5 -29 15 -43 9 -13 17 -32 17 -42 0 -9 5 -20 10 -23 6 -3 10 -11 10 -17 0 -7
-4 -7 -13 1 -8 6 -16 8 -20 5 -3 -3 -3 3 0 14 3 13 -3 28 -16 41 -20 20 -28
61 -14 74 11 11 14 8 11 -10z m272 7 c0 -5 -6 -10 -14 -10 -8 0 -18 5 -21 10
-3 6 3 10 14 10 12 0 21 -4 21 -10z m-79 -61 c-9 -22 -10 -22 -10 -3 -1 11 2
24 6 27 12 12 14 0 4 -24z m137 -21 c11 -29 10 -35 -5 -45 -32 -24 -67 -7 -43
21 8 11 8 15 -1 18 -8 3 -6 9 5 21 24 24 30 22 44 -15z m175 15 c-3 -7 -6 -13
-8 -13 -2 0 -5 6 -8 13 -3 8 1 14 8 14 7 0 11 -6 8 -14z m-963 -72 c0 -6 -4
-13 -10 -16 -5 -3 -10 1 -10 9 0 9 5 16 10 16 6 0 10 -4 10 -9z m358 -16 c-6
-14 -13 -24 -14 -22 -6 6 9 47 17 47 5 0 3 -11 -3 -25z m512 -67 c0 -16 -27
-38 -47 -38 -5 0 -16 13 -26 29 -16 27 -16 29 0 35 11 5 24 -2 40 -21 22 -27
22 -27 -2 20 -14 26 -25 51 -25 55 0 15 59 -64 60 -80z m-784 41 l16 -32 -37
6 c-47 8 -49 10 -33 36 18 29 35 26 54 -10z m154 27 c0 -2 -11 -6 -25 -8 -13
-3 -22 -1 -19 3 5 9 44 13 44 5z m288 -21 c-3 -3 -9 2 -12 12 -6 14 -5 15 5 6
7 -7 10 -15 7 -18z m172 -16 c0 -5 -7 -9 -15 -9 -9 0 -15 9 -15 21 0 18 2 19
15 9 8 -7 15 -16 15 -21z m100 22 c0 -12 -20 -25 -27 -18 -7 7 6 27 18 27 5 0
9 -4 9 -9z m-1036 -24 c4 4 4 0 1 -9 -8 -20 -35 -12 -35 9 0 12 3 13 13 4 8
-6 17 -8 21 -4z m580 -13 c3 -8 2 -13 -3 -10 -4 3 -18 -17 -31 -44 -13 -28
-25 -48 -27 -46 -3 3 48 116 53 116 1 0 5 -7 8 -16z m-59 -17 c7 -7 4 -8 -8
-3 -10 3 -30 6 -43 6 -13 0 -24 4 -24 10 0 12 61 1 75 -13z m-262 -4 c-27 -5
-40 -20 -46 -53 -4 -22 -4 -22 -6 6 -1 37 15 54 49 53 22 -2 22 -2 3 -6z m58
-30 c13 -16 12 -17 -3 -4 -10 7 -18 15 -18 17 0 8 8 3 21 -13z m64 7 c3 -6 -1
-7 -9 -4 -18 7 -21 14 -7 14 6 0 13 -4 16 -10z m435 -4 c0 -2 -9 -6 -20 -9
-11 -3 -18 -1 -14 4 5 9 34 13 34 5z m92 -46 c6 -39 0 -38 -18 5 -18 43 -18
51 0 36 8 -6 16 -25 18 -41z m78 41 c0 -5 -6 -12 -12 -14 -10 -4 -10 -6 -1 -6
6 -1 15 3 18 9 7 11 45 -9 45 -24 0 -4 -7 -3 -15 4 -18 15 -20 -1 -2 -19 10
-10 8 -15 -7 -27 -18 -13 -21 -11 -43 27 -28 50 -29 59 -3 59 11 0 20 -4 20
-9z m135 -35 c1 -17 -3 -22 -14 -18 -10 4 -12 1 -6 -9 5 -8 -4 -3 -18 10 l-27
24 22 19 c25 21 43 11 43 -26z m-295 14 c0 -5 -2 -10 -4 -10 -3 0 -8 5 -11 10
-3 6 -1 10 4 10 6 0 11 -4 11 -10z m-380 -27 c7 -16 12 -32 11 -37 -1 -5 5 -3
14 4 13 11 15 10 9 -4 -3 -9 -12 -16 -20 -16 -7 0 -11 -6 -8 -14 10 -26 -18
-30 -37 -5 -10 13 -16 25 -14 28 2 2 -2 16 -10 32 -14 26 -14 28 8 32 12 2 25
5 28 6 3 0 12 -11 19 -26z m624 -12 c13 -14 14 -21 5 -27 -8 -5 -10 -3 -4 6 6
10 4 12 -8 7 -12 -5 -17 -1 -17 13 0 25 3 25 24 1z m-237 -15 c1 -1 0 -19 -4
-39 -6 -41 -29 -49 -57 -21 -33 33 -11 78 33 67 14 -3 27 -7 28 -7z m212 -53
c13 -26 3 -30 -25 -8 -16 12 -17 16 -4 24 8 6 15 9 16 8 1 -1 7 -12 13 -24z
m139 2 c15 -14 23 -25 19 -25 -13 0 -57 32 -57 41 0 14 9 11 38 -16z m-333 6
c3 -5 1 -12 -5 -16 -5 -3 -10 1 -10 9 0 18 6 21 15 7z m323 -27 c68 -35 94
-65 90 -100 -3 -29 -3 -29 -75 40 -64 60 -84 86 -69 86 2 0 27 -12 54 -26z
m86 -134 c11 0 16 9 17 28 0 24 1 25 9 7 16 -37 10 -44 -50 -75 -86 -44 -93
-42 -138 41 -36 64 -39 74 -28 102 6 18 15 35 20 38 4 4 41 -27 81 -67 40 -41
80 -74 89 -74z m-376 115 c-3 -3 -9 2 -12 12 -6 14 -5 15 5 6 7 -7 10 -15 7
-18z m-417 -22 c-12 -20 -14 -14 -5 12 4 9 9 14 11 11 3 -2 0 -13 -6 -23z
m123 -14 c-9 -15 -24 -10 -18 6 4 8 1 15 -5 15 -6 0 -11 5 -11 12 0 6 8 3 20
-7 11 -10 17 -22 14 -26z m210 15 c3 -8 2 -12 -4 -9 -6 3 -10 10 -10 16 0 14
7 11 14 -7z m-129 -4 c3 -5 -1 -10 -9 -10 -8 0 -18 5 -21 10 -3 6 1 10 9 10 8
0 18 -4 21 -10z m199 -26 c3 -8 2 -12 -4 -9 -6 3 -10 10 -10 16 0 14 7 11 14
-7z m-174 -25 c0 -14 -17 -10 -23 5 -4 10 -1 13 9 9 7 -3 14 -9 14 -14z m140
0 c0 -6 -4 -7 -10 -4 -5 3 -10 11 -10 16 0 6 5 7 10 4 6 -3 10 -11 10 -16z
m-227 4 c-7 -2 -19 -2 -25 0 -7 3 -2 5 12 5 14 0 19 -2 13 -5z m287 -23 c6
-11 8 -20 6 -20 -3 0 -10 9 -16 20 -6 11 -8 20 -6 20 3 0 10 -9 16 -20z m-176
-29 c-2 -3 -12 3 -22 13 -16 17 -16 18 5 5 12 -7 20 -15 17 -18z m136 9 c6
-11 8 -20 6 -20 -3 0 -10 9 -16 20 -6 11 -8 20 -6 20 3 0 10 -9 16 -20z m-220
0 c0 -5 -4 -10 -9 -10 -6 0 -13 5 -16 10 -3 6 1 10 9 10 9 0 16 -4 16 -10z
m-80 -15 c0 -2 -7 -5 -15 -9 -9 -3 -15 0 -15 9 0 9 6 12 15 9 8 -4 15 -7 15
-9z m194 -42 c10 -26 0 -25 -18 1 -13 20 -13 24 -2 20 8 -3 17 -13 20 -21z
m136 7 c6 -11 8 -20 6 -20 -3 0 -10 9 -16 20 -6 11 -8 20 -6 20 3 0 10 -9 16
-20z m44 12 c3 -5 -1 -9 -9 -9 -8 0 -12 4 -9 9 3 4 7 8 9 8 2 0 6 -4 9 -8z
m-264 -23 c0 -6 -4 -7 -10 -4 -5 3 -10 11 -10 16 0 6 5 7 10 4 6 -3 10 -11 10
-16z m124 5 c3 -8 2 -12 -4 -9 -6 3 -10 10 -10 16 0 14 7 11 14 -7z m76 -4 c6
-11 8 -20 6 -20 -3 0 -10 9 -16 20 -6 11 -8 20 -6 20 3 0 10 -9 16 -20z m-297
3 c-7 -2 -21 -2 -30 0 -10 3 -4 5 12 5 17 0 24 -2 18 -5z m37 -48 c10 -12 9
-15 -8 -15 -11 0 -25 7 -32 15 -10 12 -9 15 8 15 11 0 25 -7 32 -15z m168 -10
c-3 -3 -9 2 -12 12 -6 14 -5 15 5 6 7 -7 10 -15 7 -18z m-78 5 c0 -5 -2 -10
-4 -10 -3 0 -8 5 -11 10 -3 6 -1 10 4 10 6 0 11 -4 11 -10z m180 -91 c0 -17
-8 -9 -29 29 l-22 37 26 -28 c14 -15 25 -32 25 -38z m-230 21 c0 -6 -7 -10
-15 -10 -8 0 -15 2 -15 4 0 2 -3 12 -7 21 -5 15 -3 16 15 6 12 -7 22 -16 22
-21z m84 14 c11 -28 6 -38 -9 -18 -8 10 -15 22 -15 27 0 13 18 7 24 -9z m55
-29 c0 -5 -6 -1 -14 9 -8 11 -15 24 -15 30 0 5 7 1 15 -10 8 -10 14 -23 14
-29z m-244 25 c4 -6 -7 -10 -24 -10 -17 0 -31 5 -31 10 0 6 11 10 24 10 14 0
28 -4 31 -10z m36 -66 c9 -11 7 -14 -13 -14 -23 0 -48 16 -48 31 0 11 49 -2
61 -17z m100 0 c12 -14 11 -16 -5 -13 -11 2 -21 10 -24 17 -5 17 13 15 29 -4z
m49 -4 c0 -5 -2 -10 -4 -10 -3 0 -8 5 -11 10 -3 6 -1 10 4 10 6 0 11 -4 11
-10z m140 -82 c0 -5 -4 -8 -8 -8 -9 0 -32 44 -32 58 1 9 39 -41 40 -50z m50
37 c0 -8 -2 -15 -4 -15 -2 0 -6 7 -10 15 -3 8 -1 15 4 15 6 0 10 -7 10 -15z
m-200 -15 c9 -16 8 -20 -5 -20 -8 0 -15 6 -15 14 0 8 -6 17 -12 19 -8 3 -6 6
4 6 10 1 22 -8 28 -19z m48 -1 c19 -30 8 -34 -12 -4 -9 14 -13 25 -9 25 5 0
14 -9 21 -21z m-153 1 c3 -5 -3 -10 -14 -10 -11 0 -23 5 -26 10 -3 6 3 10 14
10 11 0 23 -4 26 -10z m-85 -60 c10 -18 8 -20 -18 -20 -27 0 -52 15 -52 32 0
18 60 8 70 -12z m120 -5 c10 -12 9 -15 -8 -15 -11 0 -22 7 -26 15 -3 9 0 15 8
15 7 0 19 -7 26 -15z m103 -95 c-6 -6 -33 30 -33 44 0 6 9 0 20 -14 10 -14 16
-27 13 -30z m42 18 l16 -33 -21 24 c-11 13 -20 27 -20 32 0 18 10 8 25 -23z
m58 2 c15 -24 15 -30 4 -30 -11 0 -37 38 -37 55 0 15 18 1 33 -25z m67 15 c0
-19 -6 -19 -14 0 -3 8 -1 15 4 15 6 0 10 -7 10 -15z m-230 -15 c8 -15 8 -20
-2 -20 -7 0 -19 9 -26 20 -10 17 -10 20 3 20 8 0 19 -9 25 -20z m-115 0 c4 -6
-6 -10 -24 -10 -16 0 -33 5 -36 10 -4 6 6 10 24 10 16 0 33 -4 36 -10z"/>
<path d="M1940 1290 c0 -5 7 -10 16 -10 8 0 12 5 9 10 -3 6 -10 10 -16 10 -5
0 -9 -4 -9 -10z"/>
<path d="M1554 966 c-3 -9 -10 -13 -15 -10 -5 3 -9 -2 -9 -10 0 -26 17 -26 29
1 6 14 9 28 7 31 -3 3 -8 -3 -12 -12z"/>
<path d="M1711 674 c0 -11 3 -14 6 -6 3 7 2 16 -1 19 -3 4 -6 -2 -5 -13z"/>
<path d="M1595 939 c-4 -6 -5 -12 -2 -15 2 -3 7 2 10 11 7 17 1 20 -8 4z"/>
<path d="M1260 70 c-7 -16 -18 -35 -26 -41 -25 -21 -15 -28 34 -25 60 4 60 4
42 16 -10 6 -11 10 -2 10 6 0 12 7 12 15 0 8 -7 15 -15 15 -8 0 -15 -6 -15
-14 0 -8 -5 -18 -12 -22 -8 -5 -9 5 -5 34 6 50 4 52 -13 12z"/>
<path d="M0 36 l0 -36 70 0 c39 0 70 2 70 5 0 2 -19 9 -42 16 -24 6 -55 20
-70 31 l-28 19 0 -35z"/>
<path d="M2728 3 c7 -3 16 -2 19 1 4 3 -2 6 -13 5 -11 0 -14 -3 -6 -6z"/>
</g>
</svg>
