<?xml version="1.0" standalone="no"?>
<!DOCTYPE svg PUBLIC "-//W3C//DTD SVG 20010904//EN"
 "http://www.w3.org/TR/2001/REC-SVG-20010904/DTD/svg10.dtd">
<svg version="1.0" xmlns="http://www.w3.org/2000/svg"
 width="257.000000pt" height="196.000000pt" viewBox="0 0 257.000000 196.000000"
 preserveAspectRatio="xMidYMid meet">

<g transform="translate(0.000000,196.000000) scale(0.100000,-0.100000)"
fill="#000000" stroke="none">
<path d="M475 1541 c3 -233 5 -487 5 -563 0 -131 1 -138 20 -138 11 0 20 -3
20 -8 0 -4 9 -13 21 -20 19 -12 20 -12 14 10 -4 13 -10 29 -13 37 -4 10 -1 13
12 8 15 -6 16 -2 10 40 -10 68 9 47 31 -34 10 -37 24 -81 32 -96 8 -16 13 -36
11 -45 -3 -11 -11 -1 -23 27 -17 36 -21 40 -25 22 l-5 -22 -33 24 c-38 28 -60
26 -154 -17 -99 -44 -138 -73 -138 -102 0 -44 49 -112 138 -192 47 -42 126
-114 175 -160 l91 -84 14 28 c12 23 13 36 3 75 -11 40 -10 51 3 72 36 53 96
59 139 13 63 -68 90 -117 97 -179 5 -34 21 -92 36 -129 l28 -68 189 0 190 0
-19 23 c-10 12 -30 36 -44 52 -14 17 -1 7 29 -22 l53 -54 95 3 95 3 25 65 c13
36 31 85 40 109 9 24 36 79 59 121 24 43 44 85 44 94 0 8 -12 41 -27 73 -15
32 -28 74 -28 94 -2 42 -12 62 -27 53 -7 -5 -9 -2 -6 7 3 8 0 23 -8 34 -8 10
-14 28 -14 38 0 19 1 19 18 4 10 -10 26 -17 36 -17 9 0 16 -6 14 -13 -2 -8 12
-27 30 -42 28 -23 35 -26 43 -14 7 11 12 12 29 2 29 -18 34 -17 54 20 11 17
28 42 39 54 17 19 19 31 13 79 -6 53 -81 244 -113 289 -14 19 -14 19 -12 -10
4 -55 -1 -106 -10 -101 -4 3 -11 50 -14 104 -5 107 -17 139 -71 200 -31 35
-54 96 -58 155 -4 45 -14 31 -25 -35 -9 -59 -8 -65 13 -98 13 -19 24 -39 24
-44 0 -5 17 -34 38 -65 34 -51 37 -62 37 -126 1 -77 10 -100 55 -138 37 -31
38 -47 5 -47 -51 0 -101 -39 -158 -126 -18 -26 -25 -48 -21 -60 5 -16 4 -16
-5 -4 -6 8 -8 23 -5 32 8 28 -85 176 -118 187 -16 6 -28 15 -28 20 0 6 -17 19
-37 30 -44 22 -166 146 -161 162 2 6 37 25 78 43 92 40 101 61 45 113 -34 31
-40 33 -108 33 l-72 0 60 -30 c33 -16 68 -35 77 -42 24 -17 36 -1 12 17 -16
12 -16 14 -3 15 20 0 49 -31 49 -52 0 -9 -15 -21 -32 -29 -84 -33 -135 -59
-163 -83 -36 -31 -45 -32 -45 -7 0 10 13 28 30 41 23 18 27 26 19 36 -7 8 -21
11 -34 8 -23 -6 -64 10 -77 29 -9 14 1 37 17 37 7 0 25 10 41 22 l28 23 -29 5
c-18 3 -34 14 -40 28 -9 21 -14 22 -135 21 -90 0 -118 -3 -101 -10 13 -5 33
-9 45 -8 47 4 96 -2 96 -11 0 -5 -7 -10 -15 -10 -24 0 -17 -28 8 -32 47 -8
-124 -19 -187 -13 l-66 7 1 42 c1 22 1 76 1 118 l-2 76 -94 -5 -94 -6 -5 29
c-3 16 -6 61 -6 100 -1 73 -16 222 -27 260 -5 19 -2 21 33 19 21 -1 50 -5 66
-10 24 -6 26 -5 20 11 -6 16 -3 15 25 -4 17 -13 34 -27 37 -32 7 -11 106 -42
113 -36 2 3 -16 10 -39 16 -73 20 -98 56 -34 48 19 -2 36 1 39 7 2 6 8 6 17
-2 7 -7 36 -13 65 -13 28 0 72 -3 97 -6 43 -6 46 -9 43 -33 -2 -14 -9 -39 -16
-56 -6 -16 -16 -40 -21 -52 -9 -24 -29 -23 -61 5 -12 10 -18 11 -18 3 0 -7 13
-20 30 -29 27 -15 36 -40 14 -35 -70 13 -70 13 -31 -4 35 -15 37 -19 31 -46
-5 -22 -3 -28 7 -25 8 3 14 10 14 16 0 19 19 15 26 -5 4 -10 8 -12 8 -5 1 7
-3 21 -8 31 -5 9 -6 23 -2 29 11 17 61 -23 61 -49 0 -21 8 -23 30 -9 13 8 12
10 -2 10 -10 0 -18 6 -18 14 0 8 -14 26 -30 40 -30 25 -30 26 -19 73 7 26 18
62 26 80 13 32 20 34 96 24 4 -1 7 -7 7 -15 0 -8 7 -17 16 -20 12 -5 15 -2 10
10 -7 17 6 17 73 -2 17 -5 22 -4 17 4 -4 7 -1 12 8 12 14 0 14 3 4 20 -21 33
-35 31 -31 -4 l3 -31 -10 33 c-8 25 -16 32 -38 33 -37 2 -34 2 -59 -6 -18 -5
-25 -1 -32 18 -12 31 -29 43 -44 28 -8 -8 -8 -11 1 -11 7 0 12 -5 12 -11 0 -5
-5 -7 -11 -3 -6 3 -14 2 -18 -3 -3 -5 -49 -6 -111 -2 -58 4 -161 11 -230 15
-69 4 -135 11 -148 15 -37 14 -42 11 -43 -23 l-2 -33 -8 35 c-4 19 -6 -156 -4
-389z m179 -48 c4 -5 17 -8 29 -8 17 0 23 -8 27 -35 4 -20 9 -41 13 -46 7 -11
-62 -24 -130 -24 -23 0 -33 -5 -33 -15 0 -12 14 -15 66 -15 84 0 99 -9 102
-57 2 -27 12 -47 33 -69 26 -27 40 -32 99 -38 50 -5 70 -11 75 -24 3 -9 3 -51
-1 -94 -6 -69 -9 -79 -28 -83 -46 -9 -233 -16 -273 -9 -37 6 -43 10 -57 48
-21 55 -21 145 -1 152 8 4 15 10 15 15 0 5 -7 9 -15 9 -11 0 -15 13 -15 53 0
28 -3 82 -7 120 -5 57 -4 67 10 67 25 0 31 21 8 27 -12 3 -21 12 -21 19 0 10
14 14 48 14 27 0 52 -3 56 -7z m386 -153 c0 -5 -5 -10 -11 -10 -5 0 -7 5 -4
10 3 6 8 10 11 10 2 0 4 -4 4 -10z m54 -182 c8 -6 7 -11 -4 -17 -8 -5 -17 -8
-20 -6 -3 2 -21 -10 -40 -26 -19 -16 -28 -27 -19 -23 26 8 29 -8 11 -46 -16
-34 -30 -50 -44 -50 -10 0 -8 118 2 150 4 14 8 21 9 16 1 -5 7 -3 15 3 17 14
29 0 20 -23 -3 -9 -3 -16 1 -16 11 0 44 44 45 60 1 13 2 13 7 0 3 -8 11 -18
17 -22z m137 -52 c-6 -8 -21 -16 -32 -19 -20 -5 -20 -5 -3 14 20 23 54 28 35
5z m-138 -32 c-3 -9 -9 -12 -12 -7 -3 4 -10 11 -15 16 -5 4 0 7 12 7 15 0 20
-4 15 -16z m-530 -61 c6 -33 -2 -51 -14 -32 -11 18 -11 59 0 59 5 0 11 -12 14
-27z m504 -15 c-3 -8 -6 -5 -6 6 -1 11 2 17 5 13 3 -3 4 -12 1 -19z m-424 -74
c6 -16 14 -32 19 -35 5 -3 9 -10 9 -15 -1 -9 5 -10 42 -13 30 -2 18 -21 -13
-21 -24 0 -30 -4 -30 -21 0 -12 8 -23 20 -26 11 -3 17 -9 14 -14 -3 -5 0 -9 5
-9 6 0 11 7 11 15 0 21 111 25 118 4 2 -5 10 -9 18 -9 8 0 14 -6 15 -12 1 -7
4 -3 7 10 7 21 9 22 27 8 16 -12 17 -18 7 -24 -10 -7 -10 -11 2 -21 11 -10 15
-9 19 1 5 17 -3 -42 -9 -65 -3 -9 -9 -15 -14 -12 -4 3 -6 -4 -3 -14 6 -23 -14
-64 -28 -55 -5 3 -16 1 -24 -6 -10 -8 -15 -8 -20 1 -6 8 -9 8 -15 -1 -5 -7
-23 4 -55 34 -27 25 -52 43 -56 41 -12 -8 -27 19 -43 80 -9 33 -27 92 -40 130
-13 39 -21 74 -19 78 9 15 27 1 36 -29z m67 -28 c0 -3 -4 -8 -10 -11 -5 -3
-10 -1 -10 4 0 6 5 11 10 11 6 0 10 -2 10 -4z m727 -28 c-3 -7 -5 -2 -5 12 0
14 2 19 5 13 2 -7 2 -19 0 -25z m-17 -8 c6 -11 8 -20 6 -20 -3 0 -10 9 -16 20
-6 11 -8 20 -6 20 3 0 10 -9 16 -20z m61 -54 c5 -6 9 -14 9 -19 0 -5 -9 2 -20
16 -13 17 -18 32 -13 44 7 16 8 15 11 -7 2 -14 8 -29 13 -34z m-81 4 c-8 -5
-19 -10 -25 -10 -5 0 -3 5 5 10 8 5 20 10 25 10 6 0 3 -5 -5 -10z m-319 -23
c-10 -9 -11 -8 -5 6 3 10 9 15 12 12 3 -3 0 -11 -7 -18z m16 -29 c2 -17 0 -19
-7 -8 -5 8 -6 18 -4 22 8 12 10 10 11 -14z m244 -55 c13 -17 13 -17 -6 -3 -11
8 -22 16 -24 17 -2 2 0 3 6 3 6 0 17 -8 24 -17z m66 -85 c-22 -41 -50 -79 -54
-74 -5 5 54 96 62 96 2 0 -2 -10 -8 -22z m228 -49 c-4 -5 -12 -9 -18 -8 -9 0
-8 2 1 6 6 2 9 10 6 15 -4 7 -2 8 5 4 6 -4 9 -12 6 -17z m-295 -45 c0 -7 -8
-10 -20 -7 -31 8 -35 23 -6 21 15 -1 26 -8 26 -14z m348 -50 c46 -9 19 -22
-55 -28 -43 -4 -104 -9 -137 -12 -52 -5 -57 -4 -44 9 9 9 48 19 94 24 110 11
116 12 142 7z m-710 -18 c3 -3 -9 -6 -26 -6 -17 0 -34 5 -37 11 -7 11 51 6 63
-5z m141 -30 c51 -27 46 -32 -29 -35 -30 -1 -62 -4 -71 -7 -9 -2 -27 4 -40 15
l-24 20 53 1 c39 0 52 4 52 15 0 20 6 19 59 -9z m68 9 c0 -8 -9 -15 -21 -15
-20 0 -20 0 0 15 10 8 19 15 20 15 0 0 1 -7 1 -15z m217 0 c-25 -19 -35 -19
-28 0 4 8 16 15 27 15 20 0 20 0 1 -15z m-295 -136 c13 -11 21 -22 19 -25 -3
-3 -18 6 -33 20 -33 30 -21 35 14 5z m71 -31 c0 -7 19 -33 43 -57 l42 -45 -56
49 c-60 53 -68 65 -44 65 8 0 15 -5 15 -12z m-6 -44 c3 -8 2 -12 -4 -9 -6 3
-10 10 -10 16 0 14 7 11 14 -7z m6 -33 c0 -5 -7 -12 -16 -15 -24 -9 -28 -7
-14 9 14 17 30 20 30 6z m-100 -85 c0 -3 -4 -8 -10 -11 -5 -3 -10 -1 -10 4 0
6 5 11 10 11 6 0 10 -2 10 -4z"/>
<path d="M643 1463 c-22 -8 -14 -23 12 -23 16 0 25 6 25 15 0 15 -14 18 -37 8z"/>
<path d="M741 754 c0 -11 3 -14 6 -6 3 7 2 16 -1 19 -3 4 -6 -2 -5 -13z"/>
<path d="M1220 1950 c19 -13 30 -13 30 0 0 6 -10 10 -22 10 -19 0 -20 -2 -8
-10z"/>
<path d="M1280 1950 c-20 -6 -15 -7 22 -8 27 0 50 4 54 9 6 11 -40 10 -76 -1z"/>
<path d="M1380 1954 c0 -3 5 -14 10 -25 8 -14 7 -19 -2 -20 -7 -1 -17 -2 -23
-4 -5 -1 -34 -3 -62 -3 -60 -2 -73 -21 -15 -23 36 -1 36 -2 7 -8 -36 -8 -27
-14 40 -30 55 -14 125 -65 110 -80 -17 -16 -90 -1 -104 22 -11 17 -11 19 6 15
10 -3 26 -9 36 -13 13 -6 16 -3 11 9 -3 9 -10 13 -15 10 -6 -3 -28 4 -51 16
-22 11 -43 18 -47 14 -3 -4 0 -9 7 -11 7 -3 17 -13 22 -24 9 -15 8 -18 -7 -13
-32 10 -68 29 -75 39 -4 5 -8 -7 -8 -28 0 -60 -35 -88 -108 -87 -15 0 -22 -5
-19 -13 2 -6 9 -11 14 -10 15 3 9 -41 -7 -54 -13 -11 -13 -12 3 -13 10 0 27 5
38 10 14 8 19 7 19 -1 0 -7 10 -9 25 -7 14 3 25 2 25 -3 0 -4 29 -7 65 -8 53
0 65 3 65 15 0 10 6 14 15 10 8 -3 15 -1 15 4 0 6 -6 10 -14 10 -9 0 -12 8 -8
25 7 38 15 38 57 0 l38 -35 -34 -1 c-24 -1 -27 -3 -11 -6 12 -2 22 -9 22 -14
0 -5 18 -9 40 -9 22 0 40 -4 40 -10 0 -5 7 -10 15 -10 9 0 12 -6 9 -17 -5 -17
-4 -17 9 0 18 21 25 8 19 -35 -4 -27 -7 -28 -57 -28 -33 0 -57 -5 -64 -14 -10
-12 -8 -15 11 -18 20 -3 23 -9 22 -40 -1 -21 3 -38 7 -38 5 0 9 5 9 10 0 6 5
10 10 10 6 0 10 -7 10 -15 0 -9 9 -15 24 -15 13 0 29 -7 36 -15 18 -21 30 -19
30 7 0 12 5 48 12 80 11 53 10 61 -14 120 -25 61 -32 69 -73 84 -18 6 -18 8
-2 11 21 5 20 2 2 46 -10 25 -20 35 -30 31 -10 -4 -15 0 -15 15 0 13 -16 32
-42 51 -34 25 -37 30 -19 30 12 0 35 -15 52 -32 34 -38 36 -33 8 32 -11 26
-29 50 -38 53 -17 4 -25 37 -9 37 4 0 8 5 8 10 0 6 -11 10 -25 10 -14 0 -25
-3 -25 -6z m-3 -70 c-3 -3 -12 -4 -19 -1 -8 3 -5 6 6 6 11 1 17 -2 13 -5z
m115 -152 c4 -1 12 -10 17 -21 11 -19 11 -19 -81 -13 -29 2 -34 23 -8 33 13 5
50 5 72 1z m-192 -42 c0 -5 -4 -10 -10 -10 -5 0 -10 5 -10 10 0 6 5 10 10 10
6 0 10 -4 10 -10z m21 -37 c-9 -16 -10 -16 -11 -1 0 9 3 25 7 35 7 16 8 17 11
1 2 -10 -1 -25 -7 -35z m-84 21 c-3 -3 -12 -4 -19 -1 -8 3 -5 6 6 6 11 1 17
-2 13 -5z m259 -19 l29 -15 -26 0 c-15 0 -32 7 -39 15 -16 19 0 19 36 0z
m-216 -15 c0 -5 -2 -10 -4 -10 -3 0 -8 5 -11 10 -3 6 -1 10 4 10 6 0 11 -4 11
-10z"/>
<path d="M1450 1710 c8 -5 20 -10 25 -10 6 0 3 5 -5 10 -8 5 -19 10 -25 10 -5
0 -3 -5 5 -10z"/>
<path d="M1460 1936 c0 -20 5 -26 23 -27 16 -1 18 -2 5 -6 -22 -5 -23 -26 -4
-43 8 -6 20 -28 26 -48 7 -20 22 -59 35 -87 12 -27 32 -74 45 -102 12 -29 27
-50 32 -47 5 3 8 -5 7 -18 -4 -43 1 -66 17 -82 8 -9 12 -16 7 -16 -12 0 -3
-69 10 -77 7 -4 8 4 4 25 -3 17 -3 32 2 34 4 2 5 32 1 67 -4 46 -11 67 -25 77
-15 11 -16 14 -3 14 22 0 40 -25 40 -57 1 -44 18 -165 26 -177 8 -14 32 -78
32 -89 0 -23 -28 23 -34 55 -8 41 -23 57 -32 34 -7 -18 46 -108 61 -103 6 2
11 86 12 218 2 117 4 218 6 224 6 18 76 -179 112 -320 36 -139 36 -142 33
-312 -2 -94 0 -175 5 -179 4 -4 7 8 8 27 0 19 8 56 18 83 l17 50 17 -24 c13
-19 17 -47 17 -122 0 -101 3 -108 41 -88 18 10 19 23 19 215 l0 205 80 0 c45
0 80 4 80 10 0 5 -11 35 -25 66 -17 39 -22 61 -15 68 14 14 13 59 -2 74 -10
10 -10 15 1 21 9 6 11 14 4 26 -7 13 -12 14 -18 6 -9 -15 -34 15 -35 41 0 9
-10 24 -21 32 -12 8 -27 36 -34 63 -7 26 -23 84 -35 128 -12 44 -22 104 -23
133 0 48 -2 52 -23 52 -29 0 -29 3 -3 -82 l20 -69 -20 -40 c-25 -46 -25 -49
-8 -49 6 0 22 -16 35 -35 24 -38 28 -50 12 -40 -15 10 -12 -13 6 -41 24 -36 6
-74 -35 -74 -16 0 -31 5 -33 12 -5 15 -38 19 -38 5 0 -7 -4 -5 -10 3 -6 10 -9
-14 -7 -72 1 -48 -1 -84 -5 -80 -9 10 -48 146 -48 169 0 10 -20 59 -45 108
-43 86 -45 93 -46 187 -2 83 -4 98 -18 98 -23 0 -38 -12 -44 -35 -4 -15 -5
-14 -6 8 -1 27 -1 27 -75 27 -65 0 -75 -3 -90 -22 -15 -21 -16 -22 -14 -3 2
14 -4 21 -19 23 -19 3 -23 -1 -23 -22z m193 -3 c-7 -2 -19 -2 -25 0 -7 3 -2 5
12 5 14 0 19 -2 13 -5z m54 -55 c-3 -8 -6 -5 -6 6 -1 11 2 17 5 13 3 -3 4 -12
1 -19z m-86 -52 c-14 -36 -22 -33 -9 5 6 16 12 28 14 26 3 -2 0 -16 -5 -31z
m459 -296 c0 -5 -4 -10 -10 -10 -5 0 -10 5 -10 10 0 6 5 10 10 10 6 0 10 -4
10 -10z m-138 -138 c5 -37 16 -77 24 -89 8 -12 14 -39 13 -60 l0 -38 -15 39
c-7 21 -22 52 -33 70 -18 29 -25 76 -22 151 2 48 21 7 33 -73z m18 -188 c0
-43 -11 -94 -20 -94 -10 0 -19 47 -26 134 l-5 71 25 -40 c14 -22 26 -54 26
-71z m20 -86 c-1 -55 -3 -69 -11 -55 -9 16 -3 127 7 127 2 0 4 -33 4 -72z
m-53 -28 c9 -11 8 -20 -3 -34 -13 -18 -14 -17 -14 19 0 21 1 36 3 34 1 -2 8
-11 14 -19z"/>
<path d="M2114 1943 c2 -10 7 -28 11 -40 10 -36 28 -28 21 8 -3 17 -6 35 -6
40 0 5 -7 9 -16 9 -10 0 -14 -6 -10 -17z"/>
<path d="M2241 1936 c14 -13 38 -49 53 -80 15 -31 31 -54 36 -51 5 3 24 -10
43 -30 19 -19 39 -35 46 -35 6 0 11 -5 11 -10 0 -6 6 -10 13 -9 6 2 30 -3 52
-9 78 -23 75 -28 75 118 l0 130 -177 0 -178 0 26 -24z"/>
<path d="M2180 1851 c0 -17 5 -33 10 -36 6 -4 10 8 10 29 0 20 -4 36 -10 36
-5 0 -10 -13 -10 -29z"/>
<path d="M1076 1803 c-4 -42 -3 -70 4 -77 7 -7 10 9 10 51 0 34 5 65 10 68 6
4 8 11 5 16 -14 22 -23 5 -29 -58z"/>
<path d="M1256 1833 c-6 -14 -5 -15 5 -6 7 7 10 15 7 18 -3 3 -9 -2 -12 -12z"/>
<path d="M2151 1763 c-31 -37 -31 -38 -9 -41 24 -4 72 41 65 61 -7 23 -26 16
-56 -20z"/>
<path d="M1410 1770 c0 -5 5 -10 11 -10 5 0 7 5 4 10 -3 6 -8 10 -11 10 -2 0
-4 -4 -4 -10z"/>
<path d="M1056 1720 c4 -8 8 -24 9 -34 0 -11 6 -21 14 -24 17 -6 5 37 -16 58
-14 13 -15 13 -7 0z"/>
<path d="M850 1596 c0 -9 5 -16 10 -16 6 0 10 4 10 9 0 6 -4 13 -10 16 -5 3
-10 -1 -10 -9z"/>
<path d="M910 1591 c0 -6 5 -13 10 -16 6 -3 10 1 10 9 0 9 -4 16 -10 16 -5 0
-10 -4 -10 -9z"/>
<path d="M975 1591 c-3 -5 -1 -12 5 -16 5 -3 10 1 10 9 0 18 -6 21 -15 7z"/>
<path d="M1101 1584 c0 -11 3 -14 6 -6 3 7 2 16 -1 19 -3 4 -6 -2 -5 -13z"/>
<path d="M1210 1580 c0 -5 6 -10 14 -10 8 0 18 5 21 10 3 6 -3 10 -14 10 -12
0 -21 -4 -21 -10z"/>
<path d="M1270 1580 c0 -5 9 -10 20 -10 11 0 20 5 20 10 0 6 -9 10 -20 10 -11
0 -20 -4 -20 -10z"/>
<path d="M1330 1580 c0 -5 9 -10 20 -10 11 0 20 5 20 10 0 6 -9 10 -20 10 -11
0 -20 -4 -20 -10z"/>
<path d="M1490 1569 c0 -5 5 -7 10 -4 6 3 10 8 10 11 0 2 -4 4 -10 4 -5 0 -10
-5 -10 -11z"/>
<path d="M1070 1452 c0 -10 -5 -23 -11 -29 -6 -6 -8 -16 -5 -22 10 -15 47 -14
90 4 20 9 41 13 46 10 4 -3 19 -1 32 4 12 6 17 10 11 10 -7 1 -13 10 -13 21 0
11 -4 20 -9 20 -5 0 -11 -9 -14 -20 -3 -11 -12 -20 -21 -20 -9 0 -16 8 -16 20
0 11 -7 20 -15 20 -8 0 -14 -3 -14 -7 6 -36 -25 -47 -34 -13 -6 25 -27 26 -27
2z"/>
<path d="M1420 1440 c0 -5 5 -10 10 -10 6 0 10 5 10 10 0 6 -4 10 -10 10 -5 0
-10 -4 -10 -10z"/>
<path d="M868 1419 c16 -17 149 -26 165 -10 8 8 -9 11 -65 11 -42 0 -85 3 -95
6 -15 6 -16 5 -5 -7z"/>
<path d="M840 1311 c0 -6 5 -13 10 -16 6 -3 10 1 10 9 0 9 -4 16 -10 16 -5 0
-10 -4 -10 -9z"/>
<path d="M902 1309 c2 -6 8 -10 13 -10 5 0 11 4 13 10 2 6 -4 11 -13 11 -9 0
-15 -5 -13 -11z"/>
<path d="M1802 1219 c-7 -21 -12 -47 -12 -56 0 -20 58 -148 64 -142 2 2 1 50
-3 105 -5 69 -12 107 -22 117 -13 13 -16 10 -27 -24z"/>
<path d="M2405 603 c16 -21 38 -49 50 -63 12 -14 28 -34 36 -46 8 -12 29 -40
47 -64 l32 -43 0 33 c0 21 -11 46 -32 74 -77 100 -202 202 -133 109z"/>
<path d="M1797 614 c3 -7 9 -14 14 -14 14 0 10 17 -5 23 -10 4 -13 1 -9 -9z"/>
<path d="M2329 442 c6 -2 11 -10 11 -17 0 -8 20 -39 45 -69 25 -31 45 -60 45
-65 0 -5 3 -11 8 -13 13 -6 82 -96 107 -140 l25 -43 0 78 c0 69 -3 82 -24 105
-14 15 -43 50 -65 77 -74 89 -79 93 -126 92 -21 -1 -33 -3 -26 -5z"/>
<path d="M2212 323 c-26 -5 -20 -23 9 -23 10 0 19 7 19 15 0 8 -1 14 -2 14 -2
-1 -13 -4 -26 -6z"/>
<path d="M276 303 c12 -10 27 -33 35 -50 8 -18 20 -33 26 -33 7 0 13 -5 13
-11 0 -16 29 16 39 43 8 22 5 25 -38 40 -25 9 -57 19 -71 23 l-25 6 21 -18z"/>
<path d="M2263 301 c-10 -16 -7 -26 22 -65 19 -24 35 -50 35 -55 0 -6 6 -11
13 -11 23 0 76 -64 93 -112 5 -15 19 -18 75 -18 45 0 69 4 69 11 0 14 -143
156 -183 182 -15 10 -33 29 -39 43 -7 14 -20 24 -33 24 -11 0 -25 4 -31 10 -6
6 -14 3 -21 -9z"/>
<path d="M525 260 c3 -5 11 -10 16 -10 6 0 7 5 4 10 -3 6 -11 10 -16 10 -6 0
-7 -4 -4 -10z"/>
<path d="M2132 178 c-7 -7 -12 -18 -12 -25 0 -8 -10 -18 -22 -23 -21 -8 -19
-9 12 -10 34 -2 34 -3 -19 -19 -47 -16 -81 -44 -68 -57 2 -2 89 -3 193 -2
l189 3 -40 20 c-55 27 -125 84 -125 101 0 9 -11 14 -34 14 -19 0 -40 2 -48 5
-7 3 -19 0 -26 -7z"/>
<path d="M1772 87 c-15 -42 -15 -47 2 -47 11 0 26 40 26 71 0 21 -17 6 -28
-24z"/>
<path d="M391 84 c0 -11 3 -14 6 -6 3 7 2 16 -1 19 -3 4 -6 -2 -5 -13z"/>
</g>
</svg>
