<?xml version="1.0" standalone="no"?>
<!DOCTYPE svg PUBLIC "-//W3C//DTD SVG 20010904//EN"
 "http://www.w3.org/TR/2001/REC-SVG-20010904/DTD/svg10.dtd">
<svg version="1.0" xmlns="http://www.w3.org/2000/svg"
 width="300.000000pt" height="168.000000pt" viewBox="0 0 300.000000 168.000000"
 preserveAspectRatio="xMidYMid meet">

<g transform="translate(0.000000,168.000000) scale(0.100000,-0.100000)"
fill="#000000" stroke="none">
<path d="M236 1671 c5 -5 92 -77 194 -161 102 -83 231 -189 287 -236 56 -46
106 -84 110 -84 20 0 38 -56 73 -220 21 -96 41 -187 45 -201 6 -25 4 -27 -35
-32 -43 -6 -80 -33 -72 -55 6 -18 -6 -15 -31 8 -12 11 -27 18 -33 16 -7 -3
-18 3 -26 12 -8 10 -9 13 -1 9 15 -9 11 36 -5 56 -22 27 3 70 53 91 48 19 81
63 71 94 -3 9 -5 20 -3 24 1 4 -9 15 -22 24 -27 19 -80 20 -114 3 -24 -14
-122 -12 -148 2 -9 5 -52 9 -94 11 -74 1 -79 0 -102 -26 -18 -22 -21 -31 -13
-47 6 -10 8 -34 5 -52 -5 -27 -14 -36 -42 -46 -27 -10 -39 -23 -51 -52 -8 -21
-19 -36 -23 -33 -5 3 -9 1 -9 -5 0 -7 -101 -61 -116 -61 -1 0 -4 10 -6 22 -4
32 -46 52 -91 44 l-37 -7 0 -200 0 -200 85 -108 c85 -108 97 -131 72 -131 -23
0 -51 -39 -63 -86 -11 -45 -2 -58 23 -33 8 8 13 8 17 0 9 -14 66 -14 102 -1
19 7 30 7 40 -1 9 -8 40 -10 88 -7 97 6 163 37 183 86 22 54 -1 92 -51 83 -5
-1 -22 1 -37 4 -42 10 -48 46 -15 89 14 19 26 43 26 53 0 19 51 87 119 159 21
22 42 51 46 62 3 12 11 22 16 22 6 0 7 5 4 10 -3 6 1 13 9 16 9 3 14 10 11 14
-3 5 0 12 6 16 8 4 9 3 5 -4 -9 -15 -5 -15 30 -2 21 8 35 7 61 -5 18 -9 33
-17 33 -19 0 -2 -7 -17 -16 -34 -13 -27 -18 -30 -35 -22 -11 7 -19 7 -19 1 0
-5 5 -11 12 -13 9 -3 7 -17 -6 -52 -10 -26 -18 -63 -18 -82 0 -28 -10 -46 -43
-84 -24 -27 -46 -58 -50 -69 -3 -12 -10 -21 -15 -21 -5 0 -9 -19 -9 -42 0 -24
-5 -59 -10 -78 -6 -19 -11 -47 -11 -62 l0 -28 96 0 c93 0 96 1 91 21 -4 16 9
36 55 84 64 68 108 89 104 50 -2 -11 -8 -30 -15 -41 -11 -17 -12 -15 -8 13 2
18 3 33 1 33 -11 0 -44 -89 -44 -120 l0 -40 225 0 225 0 0 65 0 65 40 0 40 0
0 -65 c0 -46 4 -65 13 -65 17 0 43 43 28 48 -6 2 -11 21 -11 43 0 32 4 39 19
39 11 0 22 -6 24 -12 4 -10 6 -10 6 0 1 19 28 14 34 -7 4 -16 -2 -21 -24 -26
-34 -8 -47 -24 -28 -36 12 -8 11 -12 -3 -23 -10 -7 -18 -16 -18 -20 0 -3 72
-6 159 -6 l159 0 -1 28 c-1 15 0 44 1 66 2 37 3 38 32 33 16 -4 37 -14 47 -24
17 -16 17 -19 -14 -52 -18 -19 -33 -39 -33 -43 0 -4 138 -8 306 -8 l305 0 -19
28 c-11 15 -48 81 -82 147 -34 66 -69 127 -76 136 -20 23 -17 29 15 29 24 0
52 -23 156 -125 70 -69 131 -125 135 -125 13 0 50 -56 50 -74 0 -13 13 -16 74
-16 73 0 74 0 84 29 6 16 8 32 5 34 -7 8 227 291 243 295 10 3 14 24 14 83 0
43 -2 79 -4 79 -2 0 -47 -54 -100 -120 -53 -66 -98 -120 -101 -120 -2 0 -16
12 -30 26 -39 39 -82 31 -118 -24 -25 -37 -32 -41 -55 -36 -15 4 -52 30 -83
58 -31 28 -68 59 -82 68 -16 11 -24 24 -21 35 3 12 -13 35 -49 71 -30 28 -59
52 -65 52 -13 0 -52 49 -52 65 0 14 12 14 43 0 23 -10 47 11 47 41 0 35 -45
59 -147 76 -91 16 -92 16 -137 -7 -57 -29 -80 -27 -84 8 -3 28 -53 77 -78 77
-18 0 -18 0 7 165 22 147 34 184 59 193 8 3 130 80 270 170 140 90 324 208
407 261 l153 96 -55 3 c-48 3 -58 0 -78 -21 -12 -14 -146 -108 -297 -209 -151
-102 -293 -197 -314 -212 -22 -14 -41 -25 -43 -22 -2 2 59 95 135 207 195 287
178 259 155 259 -15 0 -55 -52 -153 -197 -144 -215 -196 -288 -221 -316 -9 -9
-22 -30 -30 -45 -7 -15 -34 -58 -59 -96 l-45 -69 -94 7 c-52 4 -96 8 -98 10
-1 1 13 57 32 124 19 66 35 129 35 140 0 22 -15 8 258 247 143 125 216 195
203 195 -11 0 -34 -12 -53 -27 l-33 -28 18 28 c29 44 2 31 -29 -15 l-29 -43
-5 45 -5 45 -7 -60 c-7 -59 -8 -61 -85 -133 -103 -96 -179 -161 -168 -142 5 8
48 77 97 153 118 186 113 174 78 175 -22 0 -39 -11 -74 -48 -52 -56 -56 -56
-21 0 40 63 29 61 -14 -3 -21 -32 -43 -59 -47 -60 -5 0 -16 -17 -25 -37 -9
-19 -40 -57 -69 -85 -29 -27 -49 -43 -44 -34 5 8 36 59 69 112 46 76 61 93 67
80 5 -13 7 -9 7 14 1 25 8 36 29 47 26 15 26 15 -36 16 -36 0 -61 -4 -57 -9
10 -17 -36 -23 -104 -15 l-66 9 80 5 c44 3 -76 6 -266 7 l-345 3 5 -33 c3 -22
6 -26 9 -13 3 13 18 -7 51 -67 46 -85 71 -121 57 -82 -9 25 0 15 46 -51 47
-67 61 -94 49 -94 -5 0 -28 30 -50 68 -23 37 -41 60 -41 52 -1 -23 -58 47 -85
102 -12 26 -24 45 -27 43 -2 -3 -15 13 -27 35 -24 42 -39 55 -21 18 11 -23 11
-23 -9 0 -11 13 -25 22 -30 20 -6 -1 49 -75 121 -162 98 -120 135 -173 149
-214 25 -72 25 -72 -14 -72 -37 0 -34 -4 -236 358 -29 50 -57 92 -62 92 -6 0
-8 -3 -6 -7 16 -28 150 -270 154 -278 2 -5 -17 13 -42 40 -110 117 -163 185
-170 214 -6 28 -10 31 -47 31 l-41 0 53 -57 c30 -32 81 -87 114 -123 33 -36
91 -97 128 -136 38 -38 71 -82 73 -95 5 -25 69 -241 81 -273 5 -14 -5 -16 -74
-16 l-80 0 -45 74 c-24 41 -47 85 -50 98 -4 14 -17 36 -30 50 -13 14 -67 97
-120 185 -52 87 -113 187 -135 223 -27 44 -46 66 -62 68 -12 2 -20 0 -17 -5 2
-4 57 -95 121 -202 64 -106 116 -195 114 -196 -2 -2 -52 39 -113 91 -60 52
-116 94 -123 94 -7 0 -11 4 -7 9 5 10 -12 25 -30 26 -5 1 -9 6 -8 13 2 6 -3 9
-11 6 -7 -3 -19 2 -26 11 -7 8 -9 15 -4 15 5 1 -6 7 -24 15 -18 8 -31 19 -28
24 4 5 1 13 -5 17 -8 5 -9 3 -4 -7 8 -12 6 -12 -8 0 -10 8 -15 16 -12 19 3 4
-9 13 -27 22 -18 9 -32 22 -30 29 1 7 -2 10 -7 7 -5 -4 -12 -2 -16 4 -3 5 -20
10 -38 10 -19 0 -27 -4 -21 -9z m969 -21 c11 -5 -12 -7 -54 -4 -41 2 -79 9
-85 15 -12 12 102 3 139 -11z m32 14 c-3 -3 -12 -4 -19 -1 -8 3 -5 6 6 6 11 1
17 -2 13 -5z m542 -181 c-62 -98 -119 -184 -126 -191 -7 -7 -20 -28 -29 -47
-15 -33 -19 -35 -66 -35 -39 0 -49 3 -45 14 3 8 11 34 18 57 10 37 40 73 183
216 93 95 172 170 174 168 3 -2 -47 -84 -109 -182z m-713 107 c23 -43 27 -55
12 -36 -37 47 -72 109 -59 105 7 -3 28 -33 47 -69z m241 64 c-3 -3 -12 -4 -19
-1 -8 3 -5 6 6 6 11 1 17 -2 13 -5z m130 -8 c3 -3 -8 -6 -25 -6 -18 0 -32 4
-32 9 0 10 47 8 57 -3z m-363 -2 c9 -3 14 -10 11 -14 -3 -5 4 -24 16 -42 19
-29 20 -26 4 15 -11 28 10 39 56 29 l44 -10 -40 -2 c-22 -1 -43 -2 -47 -1 -4
0 -2 -11 4 -25 7 -15 14 -21 16 -15 2 6 9 11 15 11 7 -1 2 -9 -11 -20 -14 -11
-21 -25 -17 -32 15 -28 -35 39 -55 75 -22 39 -22 41 4 31z m556 -14 c-20 -13
-120 -13 -120 0 0 6 29 10 68 10 47 0 63 -3 52 -10z m53 -40 c-21 -28 -38 -57
-38 -64 0 -21 -119 -206 -132 -206 -24 0 -13 22 42 90 53 65 71 95 40 70 -8
-7 -15 -9 -15 -4 0 5 -24 -29 -52 -75 -31 -50 -54 -77 -56 -68 -2 9 16 42 40
74 24 32 43 65 43 73 0 8 9 15 20 15 14 0 32 18 57 59 30 48 65 83 86 86 1 0
-15 -23 -35 -50z m-376 34 c-3 -3 -12 -4 -19 -1 -8 3 -5 6 6 6 11 1 17 -2 13
-5z m93 -4 c0 -5 -8 -10 -17 -10 -15 0 -16 2 -3 10 19 12 20 12 20 0z m-202
-17 c-10 -2 -28 -2 -40 0 -13 2 -5 4 17 4 22 1 32 -1 23 -4z m388 0 c-7 -7
-97 -5 -105 3 -2 2 22 4 54 4 32 0 55 -3 51 -7z m49 -19 c-36 -55 -57 -73 -70
-61 -15 14 -1 53 23 62 12 4 11 1 -3 -21 -9 -14 -15 -28 -12 -30 2 -2 16 14
31 36 14 22 31 40 37 40 7 0 4 -11 -6 -26z m-85 -33 c-10 -21 -30 -37 -30 -26
0 14 21 45 31 45 6 0 6 -7 -1 -19z m-265 -51 c3 -5 -1 -10 -9 -10 -9 0 -16 5
-16 10 0 6 4 10 9 10 6 0 13 -4 16 -10z m115 0 c0 -5 -5 -10 -11 -10 -5 0 -7
5 -4 10 3 6 8 10 11 10 2 0 4 -4 4 -10z m-199 -113 c11 -22 18 -41 16 -44 -3
-2 -8 5 -12 16 -3 12 -12 27 -18 34 -16 16 -47 73 -47 84 0 11 35 -41 61 -90z
m106 87 c-3 -3 -12 -4 -19 -1 -8 3 -5 6 6 6 11 1 17 -2 13 -5z m73 -4 c0 -5
-4 -10 -10 -10 -5 0 -10 5 -10 10 0 6 5 10 10 10 6 0 10 -4 10 -10z m120 -9
c0 -6 -11 -23 -25 -38 l-25 -28 4 25 c1 14 6 23 10 20 4 -3 12 3 17 13 11 19
19 22 19 8z m10 -31 c-11 -22 -25 -40 -31 -40 -11 0 -7 9 23 53 28 39 32 33 8
-13z m-299 5 c5 3 6 -1 2 -11 -6 -16 -7 -15 -20 2 -7 10 -13 23 -13 28 0 6 5
3 11 -7 6 -9 14 -15 20 -12z m99 15 c0 -5 -4 -10 -9 -10 -6 0 -13 5 -16 10 -3
6 1 10 9 10 9 0 16 -4 16 -10z m-70 -70 c5 8 9 7 13 -5 5 -11 3 -14 -5 -9 -8
5 -9 1 -5 -12 7 -18 7 -18 -8 0 -8 11 -15 25 -14 30 0 6 3 5 6 -3 4 -10 7 -10
13 -1z m220 -30 c-6 -12 -14 -19 -17 -17 -2 3 1 15 7 27 6 12 14 19 17 17 2
-3 -1 -15 -7 -27z m-20 14 c0 -11 -14 -34 -21 -34 -4 0 -5 7 -2 17 5 12 3 14
-7 8 -8 -5 -11 -4 -7 2 5 8 37 15 37 7z m-216 -84 c18 -45 21 -63 6 -40 -8 12
-10 12 -10 -5 0 -17 -2 -17 -10 -5 -13 20 -13 33 0 25 14 -9 12 1 -5 35 -9 17
-11 30 -6 30 5 0 16 -18 25 -40z m26 5 c0 -5 -5 -3 -10 5 -5 8 -10 20 -10 25
0 6 5 3 10 -5 5 -8 10 -19 10 -25z m171 2 c-10 -9 -11 -8 -5 6 3 10 9 15 12
12 3 -3 0 -11 -7 -18z m29 -12 c-6 -8 -9 -18 -6 -24 7 -11 -20 -8 -31 4 -4 4
-3 5 3 2 7 -4 17 6 25 25 7 17 15 26 17 19 2 -6 -1 -18 -8 -26z m35 -20 c-15
-25 -29 -44 -31 -42 -6 6 27 81 39 89 21 13 19 0 -8 -47z m-100 -4 c-9 -8 -36
-10 -30 -2 2 4 11 8 20 8 8 0 13 -3 10 -6z m118 -11 c-5 -19 -23 -39 -23 -25
0 9 20 45 24 45 2 0 2 -9 -1 -20z m-264 -133 c55 -163 38 -156 -63 26 l-37 67
35 0 34 0 31 -93z m23 51 c24 -45 32 -88 16 -88 -5 0 -8 5 -6 12 3 7 -6 28
-19 47 -20 30 -31 71 -18 71 2 0 15 -19 27 -42z m-25 -165 c4 -9 -5 -13 -26
-13 -17 0 -31 1 -31 3 0 2 -11 41 -25 88 -14 46 -28 93 -31 104 -5 19 103
-155 113 -182z m166 162 c-9 -19 -20 -35 -25 -35 -4 0 0 16 9 35 9 19 20 35
25 35 4 0 0 -16 -9 -35z m73 8 c-4 -16 -14 -33 -22 -40 -9 -6 -17 -20 -18 -30
-2 -10 -12 -18 -24 -19 -25 -1 -24 -2 -16 20 3 9 13 16 21 16 8 0 11 5 8 10
-3 6 2 10 12 11 10 0 13 3 6 5 -17 7 5 54 25 54 10 0 12 -7 8 -27z m104 17 c0
-21 -123 -200 -137 -200 -10 0 -13 6 -9 16 3 9 9 27 12 40 3 13 10 24 16 24 5
0 7 4 4 9 -3 4 3 32 14 62 11 29 20 55 20 56 0 2 18 3 40 3 22 0 40 -4 40 -10z
m7 -105 c-29 -102 -31 -105 -59 -105 -16 0 -31 6 -34 14 -5 13 104 196 117
196 4 0 -7 -47 -24 -105z m-260 73 c-3 -8 -6 -5 -6 6 -1 11 2 17 5 13 3 -3 4
-12 1 -19z m80 -113 c-7 -14 -15 -25 -19 -25 -5 0 -8 -8 -9 -17 0 -10 -5 -5
-9 11 -10 31 4 55 32 56 14 0 14 -4 5 -25z m-467 -17 c11 -18 20 -43 20 -55 0
-13 6 -23 14 -23 7 0 34 -34 59 -75 26 -41 42 -75 37 -75 -21 0 -81 -63 -75
-79 5 -13 4 -14 -7 -3 -7 7 -14 27 -15 45 0 18 -2 32 -3 32 -3 0 -12 41 -15
70 -1 17 -3 32 -4 35 -2 3 -4 20 -7 39 -2 19 -9 39 -14 46 -5 7 -7 14 -5 17 3
3 1 17 -4 32 -14 36 -5 33 19 -6z m488 10 c-7 -13 -12 -27 -13 -32 0 -11 -25
-21 -25 -11 0 9 40 65 46 65 3 0 -1 -10 -8 -22z m-101 -25 c-3 -10 -5 -4 -5
12 0 17 2 24 5 18 2 -7 2 -21 0 -30z m531 -65 c-10 -57 -17 -111 -14 -121 2
-9 0 -15 -5 -11 -5 3 -9 -1 -9 -9 0 -8 -7 -20 -15 -27 -19 -15 -19 -48 -2 -90
11 -24 11 -44 4 -83 -17 -87 -48 -89 -130 -9 -33 31 -55 48 -49 37 6 -11 22
-31 36 -44 33 -31 33 -39 0 -35 -39 4 -64 32 -64 73 0 28 19 64 88 168 48 73
93 133 100 133 6 0 12 7 12 16 0 17 51 103 61 104 3 0 -3 -46 -13 -102z m-661
-83 c22 -76 22 -81 6 -94 -17 -12 -16 -13 5 -8 12 3 22 2 22 -1 0 -4 3 -17 6
-29 5 -18 1 -25 -21 -33 -35 -13 -55 2 -55 42 0 20 -10 39 -34 61 -19 18 -49
58 -66 90 l-32 58 72 -3 73 -3 24 -80z m79 58 c4 -16 3 -28 -4 -31 -7 -2 -7
-13 -2 -33 10 -34 -2 -38 -24 -7 -19 27 -21 52 -3 42 6 -4 2 3 -10 15 -31 29
-29 41 7 41 24 0 31 -5 36 -27z m64 7 c0 -5 -4 -10 -10 -10 -5 0 -10 5 -10 10
0 6 5 10 10 10 6 0 10 -4 10 -10z m50 1 c0 -6 -4 -13 -10 -16 -5 -3 -10 1 -10
9 0 9 5 16 10 16 6 0 10 -4 10 -9z m111 -3 c0 -10 2 -10 6 0 2 6 12 12 21 12
15 0 15 -2 -1 -17 -11 -11 -30 -16 -54 -15 -42 3 -48 6 -38 21 9 15 65 14 66
-1z m232 6 c12 -4 -2 -32 -60 -122 -42 -64 -78 -119 -80 -122 -6 -7 -23 22
-29 52 -4 15 -10 26 -14 23 -4 -3 -14 3 -21 12 -12 15 -12 16 4 10 9 -3 17 -2
17 3 0 6 -4 10 -9 10 -9 0 13 112 25 131 6 10 144 12 167 3z m-1076 -56 c-3
-8 -6 -5 -6 6 -1 11 2 17 5 13 3 -3 4 -12 1 -19z m851 2 c-2 -9 -16 -16 -38
-18 l-35 -2 25 16 c17 11 19 13 5 9 -49 -17 -55 -17 -55 -1 0 14 9 16 50 14
38 -2 50 -7 48 -18z m-24 -42 c-30 -49 -67 -98 -73 -98 -13 0 -31 24 -31 42 0
13 8 18 28 19 l27 2 -27 4 c-29 4 -38 27 -15 36 6 3 31 6 55 6 32 1 41 -2 36
-11z m-144 -13 c0 -8 -4 -15 -10 -15 -5 0 -10 7 -10 15 0 8 5 15 10 15 6 0 10
-7 10 -15z m170 0 c0 -8 -4 -15 -10 -15 -5 0 -7 7 -4 15 4 8 8 15 10 15 2 0 4
-7 4 -15z m-262 -20 c-3 -3 -9 2 -12 12 -6 14 -5 15 5 6 7 -7 10 -15 7 -18z
m92 -37 c0 -18 -5 -28 -12 -26 -16 6 -17 55 -1 55 8 0 13 -13 13 -29z m153 1
c-6 -22 -25 -33 -43 -27 -7 2 -3 14 10 31 24 30 41 28 33 -4z m37 -13 c0 -3
-4 -8 -10 -11 -5 -3 -10 -1 -10 4 0 6 5 11 10 11 6 0 10 -2 10 -4z m-127 -42
c-7 -19 -10 -18 -16 5 -3 13 -1 18 9 14 7 -2 10 -11 7 -19z m-63 1 c0 -8 -2
-15 -4 -15 -2 0 -6 7 -10 15 -3 8 -1 15 4 15 6 0 10 -7 10 -15z m134 -12 c-4
-16 -9 -31 -11 -35 -5 -9 -73 -11 -73 -3 0 20 47 65 67 65 20 0 23 -3 17 -27z
m74 -13 c-1 -37 -18 -59 -18 -24 0 8 -4 13 -9 9 -12 -7 -25 31 -16 45 3 5 15
10 26 10 16 0 19 -7 17 -40z m19 -17 c-3 -10 -5 -4 -5 12 0 17 2 24 5 18 2 -7
2 -21 0 -30z m-422 -6 c-4 -8 -18 -17 -32 -20 l-25 -5 28 23 c32 25 38 26 29
2z m103 11 c10 -13 16 -54 14 -98 -2 -21 -7 -16 -35 30 -30 49 -32 56 -19 68
9 6 19 12 23 12 3 0 11 -6 17 -12z m-45 -80 c39 -63 42 -88 9 -88 -11 0 -25
-7 -32 -15 -8 -9 -22 -12 -41 -8 -19 4 -40 -1 -64 -16 -20 -11 -38 -21 -41
-21 -11 0 -2 34 13 45 19 14 11 51 -9 39 -7 -4 -10 -3 -5 1 4 5 0 17 -9 27
-14 14 -14 20 -4 33 7 8 20 15 29 16 9 0 36 11 61 24 25 12 47 23 50 24 3 0
22 -27 43 -61z m137 50 c0 -13 -20 -19 -21 -6 0 10 -2 10 -6 1 -7 -18 -23 -16
-23 2 0 10 9 14 25 13 14 -1 25 -6 25 -10z m562 0 c13 0 15 -3 9 -16 -5 -9
-14 -29 -21 -44 -12 -26 -45 -46 -57 -35 -3 3 -2 29 2 57 6 46 9 50 28 44 12
-4 30 -7 39 -6z m-1175 -4 c-3 -3 -12 -4 -19 -1 -8 3 -5 6 6 6 11 1 17 -2 13
-5z m723 -20 c-6 -14 -7 -30 -4 -36 4 -7 2 -8 -4 -4 -7 4 -12 2 -12 -3 0 -6
-4 -11 -9 -11 -5 0 -11 18 -13 40 -3 38 -2 40 24 40 25 0 27 -2 18 -26z m62
10 c3 13 6 13 22 1 17 -13 17 -15 2 -30 -9 -9 -16 -21 -16 -26 0 -5 -14 -9
-31 -9 -24 0 -30 3 -25 16 3 9 9 27 13 42 5 23 7 24 19 8 10 -15 13 -15 16 -2z
m-1127 -28 c14 -22 13 -28 -24 -107 -40 -86 -127 -224 -142 -224 -4 0 -38 40
-74 89 l-66 89 43 44 c47 48 130 99 193 119 54 17 52 17 70 -10z m1190 -26 c3
-5 -1 -10 -9 -10 -9 0 -16 5 -16 10 0 6 4 10 9 10 6 0 13 -4 16 -10z m-75 -26
c0 -13 -42 -74 -51 -74 -12 0 -12 22 1 54 6 16 17 26 30 26 11 0 20 -3 20 -6z
m89 -3 c28 -15 16 -71 -14 -71 -13 0 -26 6 -29 13 -3 6 -4 3 -3 -8 2 -16 -5
-21 -30 -23 -18 -2 -33 0 -33 4 0 4 12 26 28 50 27 44 47 53 81 35z m-172 -73
c-3 -7 -5 -2 -5 12 0 14 2 19 5 13 2 -7 2 -19 0 -25z m780 6 c-3 -3 -12 -4
-19 -1 -8 3 -5 6 6 6 11 1 17 -2 13 -5z m-427 -18 c14 -2 26 -8 26 -14 3 -25
5 -27 13 -13 5 7 14 10 21 6 16 -10 -9 -26 -30 -20 -9 3 -22 -4 -30 -15 -16
-22 -40 -27 -40 -7 0 6 -9 23 -20 37 -26 34 -25 40 8 35 15 -3 38 -7 52 -9z
m166 -20 l0 -33 -48 20 c-53 22 -52 33 2 40 19 2 37 5 41 5 3 1 5 -13 5 -32z
m-516 -40 c0 -42 -19 -78 -21 -39 0 10 -3 13 -6 6 -7 -20 -21 -15 -39 12 -16
24 -16 27 1 45 10 11 29 20 42 20 21 0 23 -4 23 -44z m76 9 c-42 -37 -66 -44
-66 -20 0 8 4 15 9 15 5 0 11 9 14 20 4 16 13 20 44 20 l38 -1 -39 -34z m542
21 c-7 -8 -15 -12 -17 -11 -5 6 10 25 20 25 5 0 4 -6 -3 -14z m-333 -25 c-6
-5 -25 10 -25 20 0 5 6 4 14 -3 8 -7 12 -15 11 -17z m-65 -29 c14 -50 13 -52
-13 -52 -18 0 -26 8 -35 37 -13 42 -11 48 17 50 16 1 23 -7 31 -35z m486 23
c14 -11 15 -14 4 -15 -28 0 -60 12 -54 21 8 13 28 11 50 -6z m-560 -28 c1 -7
5 -20 9 -29 6 -15 1 -18 -29 -18 -27 0 -35 3 -29 13 37 58 44 63 49 34z m401
1 c13 -12 23 -27 23 -34 0 -8 6 -11 15 -8 8 4 15 2 15 -4 0 -5 -8 -13 -17 -16
-19 -8 -57 27 -68 62 -8 28 2 28 32 0z m-247 -32 c0 -12 -5 -7 -19 24 -11 24
-11 24 3 6 9 -11 16 -24 16 -30z m-112 -104 c26 -81 26 -82 7 -82 -11 0 -15
11 -15 43 0 23 -7 53 -16 65 -21 31 -73 30 -103 -2 -19 -21 -22 -31 -16 -65 6
-37 5 -41 -14 -41 -19 0 -21 6 -21 56 0 51 2 56 20 51 10 -3 19 -2 18 2 -1 3
2 14 6 24 6 13 20 17 60 17 l52 0 22 -68z m52 21 c0 -71 -16 -87 -30 -32 -6
24 -13 52 -16 62 -4 13 1 17 20 17 24 0 26 -3 26 -47z m-662 11 c-12 -25 -68
-63 -68 -45 0 16 51 71 66 71 11 0 11 -5 2 -26z m239 -46 c-3 -7 -5 -2 -5 12
0 14 2 19 5 13 2 -7 2 -19 0 -25z m630 22 c21 0 24 -2 13 -15 -18 -22 -47 -18
-61 7 -10 18 -9 20 6 15 9 -4 28 -7 42 -7z m-467 -45 l0 -45 -40 0 c-38 0 -40
2 -40 29 0 49 9 61 46 61 34 0 34 -1 34 -45z m400 24 c0 -6 -4 -7 -10 -4 -5 3
-10 11 -10 16 0 6 5 7 10 4 6 -3 10 -11 10 -16z m217 -21 c-3 -8 -6 -5 -6 6
-1 11 2 17 5 13 3 -3 4 -12 1 -19z m118 -48 c0 -8 9 -20 20 -25 11 -6 21 -19
21 -30 1 -11 7 -33 13 -49 10 -25 10 -27 -3 -17 -8 7 -17 25 -21 40 -3 16 -19
41 -35 56 -34 32 -38 48 -12 43 9 -2 17 -10 17 -18z m-1233 -98 l-5 -26 -9 24
c-10 28 -2 62 11 42 4 -8 6 -25 3 -40z"/>
<path d="M1620 1508 c-12 -22 -12 -22 6 -6 10 10 15 20 12 24 -4 3 -12 -5 -18
-18z"/>
</g>
</svg>
